
<svg viewBox="0 0 30 30" fill="none" xmlns="http://www.w3.org/2000/svg"><path d="M8.327 6.444c.073 1.088.256 2.152.55 3.166L7.41 11.077a18.12 18.12 0 01-.929-4.633h1.846zm12.05 14.692c1.04.293 2.103.476 3.179.55v1.82a18.854 18.854 0 01-4.645-.916l1.467-1.454zM9.5 4H5.222C4.55 4 4 4.55 4 5.222 4 16.7 13.301 26 24.778 26 25.45 26 26 25.45 26 24.778v-4.266c0-.672-.55-1.222-1.222-1.222a13.94 13.94 0 01-4.364-.697 1.025 1.025 0 00-.378-.06c-.318 0-.624.121-.868.354l-2.69 2.689a18.515 18.515 0 01-8.054-8.055l2.69-2.689c.342-.342.44-.819.305-1.246a13.886 13.886 0 01-.697-4.364C10.722 4.55 10.172 4 9.5 4z" fill="currentColor"/></svg>