
<svg  viewBox="0 0 30 30" fill="none" xmlns="http://www.w3.org/2000/svg"><path fill-rule="evenodd" clip-rule="evenodd" d="M9.806 5.969c3.24-.459 7.147-.459 10.386 0 2.945.417 5.226 2.482 5.66 4.707.53 2.694.53 5.954 0 8.648-.436 2.225-2.715 4.29-5.66 4.707-3.24.46-7.148.46-10.386 0-2.944-.417-5.224-2.482-5.66-4.707-.53-2.694-.53-5.954 0-8.648.436-2.225 2.716-4.29 5.66-4.707zm10.737-2.475c-3.47-.491-7.616-.491-11.087 0-3.77.534-7.082 3.222-7.763 6.702-.59 3.012-.59 6.597 0 9.608.681 3.48 3.993 6.169 7.763 6.702 3.47.492 7.616.492 11.087 0 3.77-.533 7.082-3.222 7.762-6.702.591-3.011.591-6.596 0-9.608-.68-3.48-3.994-6.168-7.762-6.702zm-7.35 5.466A1.25 1.25 0 0011.248 10v10a1.25 1.25 0 001.944 1.04l7.5-5a1.25 1.25 0 000-2.08l-7.5-5zM17.745 15l-3.996 2.665v-5.329L17.744 15z" fill="currentColor"/></svg>