
<svg viewBox="0 0 30 30" fill="none" xmlns="http://www.w3.org/2000/svg"><path fill-rule="evenodd" clip-rule="evenodd" d="M18.562 7.072a3.857 3.857 0 00-3.783 4.617 1.25 1.25 0 01-1.38 1.485 13.959 13.959 0 01-7.292-3.18c.04.752.3 1.552.867 2.39l.848 1.255-1.393.594-.27.114c.2.23.44.463.71.694.359.308.739.59 1.137.845l.014.009h.001l1.935 1.174-2.025 1.012c-.1.05-.2.095-.3.135.436.362.915.667 1.428.908l1.737.821L9.341 21.2c-.794.685-1.592 1.196-2.629 1.466a10.935 10.935 0 005.164 1.284c6.008 0 10.845-4.794 10.845-10.667v-.65l.531-.374c.83-.583 1.417-1.37 1.837-2.272h-2.7l-.34-.712a3.857 3.857 0 00-3.485-2.203h-.002zm-14.1 9.126a1.25 1.25 0 00-.296.996c.141 1.001.74 1.864 1.403 2.522.18.179.372.35.575.514l-.094.025c-.601.15-1.413.181-2.764.05a1.25 1.25 0 00-1.016 2.117 13.397 13.397 0 009.605 4.028c7.141 0 12.999-5.545 13.33-12.542 1.612-1.354 2.419-3.188 2.854-4.854a1.249 1.249 0 00-1.21-1.567h-2.942a6.358 6.358 0 00-11.68 2.924 11.517 11.517 0 01-5.902-3.719 1.25 1.25 0 00-2.091.288c-.758 1.652-.903 3.557-.058 5.495l-.292.125a1.25 1.25 0 00-.713 1.491c.233.815.755 1.535 1.29 2.107h.001z" fill="#fff"/></svg>
