<svg class="SVGItem" viewBox="0 0 1030 580" fill="none" xmlns="http://www.w3.org/2000/svg">
<path id="love" d="M804.896 261.755L802.529 258.831C793.616 249.106 787.807 242.573 788.562 235.393C789.178 229.535 794.189 225.477 800.047 226.092C803.259 226.43 806.313 228.279 808.133 230.954C810.47 228.716 813.841 227.542 817.053 227.88C822.911 228.495 826.969 233.507 826.354 239.365C825.599 246.545 818.559 251.728 807.819 259.387L804.896 261.755Z" fill="currentColor"/>
<path id="path" d="M948.5 288C593.513 278.432 85 345 39.5001 263.5C-5.99985 182 566.193 -17.0486 606.5 202C646.562 419.714 -108 173 67.5001 377.5C243 582 713.499 505.5 900.5 384.5C1087.5 263.5 -44.2535 323.949 197.5 169C399.357 39.6218 807.003 242.722 807.003 242.722" stroke="green"/>
</svg>
