<svg viewBox="0 0 1033 475" fill="none" xmlns="http://www.w3.org/2000/svg">
<path id="love" d="M156.896 139.755L154.529 136.831C145.616 127.106 139.807 120.573 140.562 113.393C141.178 107.535 146.189 103.477 152.047 104.092C155.259 104.43 158.313 106.279 160.133 108.954C162.47 106.716 165.841 105.542 169.053 105.88C174.911 106.495 178.969 111.507 178.354 117.365C177.599 124.545 170.559 129.728 159.819 137.387L156.896 139.755Z" fill="white"/>
<path d="M801.896 139.755L799.529 136.831C790.616 127.106 784.807 120.573 785.562 113.393C786.178 107.535 791.189 103.477 797.047 104.092C800.259 104.43 803.313 106.279 805.133 108.954C807.47 106.716 810.841 105.542 814.053 105.88C819.911 106.495 823.969 111.507 823.354 117.365C822.599 124.545 815.559 129.728 804.819 137.387L801.896 139.755Z" fill="white"/>
<path d="M122.851 123.1C126.951 123.1 129.001 124.4 129.001 127C129.001 127.7 128.951 128.2 128.851 128.5C128.551 129.5 128.101 130.3 127.501 130.9C126.901 131.4 126.051 132 124.951 132.7C123.451 133.6 122.201 134.6 121.201 135.7C120.201 136.8 119.351 138.5 118.651 140.8L100.051 207.4C98.3508 213.4 96.2008 217.6 93.6008 220C91.1008 222.4 87.6008 223.6 83.1008 223.6C79.1008 223.6 75.7508 222.45 73.0508 220.15C70.4508 217.75 68.0008 214.1 65.7008 209.2L43.0508 161.5L30.4508 205.3C30.1508 206.6 30.0008 207.75 30.0008 208.75C30.0008 210.05 30.2008 211.15 30.6008 212.05C31.1008 212.85 31.7508 213.7 32.5508 214.6C33.6508 215.9 34.2008 217 34.2008 217.9C34.2008 218.5 34.1508 218.95 34.0508 219.25C33.6508 220.65 32.7508 221.65 31.3508 222.25C29.9508 222.75 27.8508 223 25.0508 223H8.70078C4.60078 223 2.55078 221.7 2.55078 219.1C2.55078 218.4 2.60078 217.9 2.70078 217.6C3.00078 216.6 3.45078 215.85 4.05078 215.35C4.65078 214.75 5.50078 214.1 6.60078 213.4C8.10078 212.5 9.35078 211.5 10.3508 210.4C11.3508 209.3 12.2008 207.6 12.9008 205.3L31.9508 137.95L29.5508 133C28.5508 131 28.0508 129.25 28.0508 127.75C28.0508 124.65 30.0508 123.1 34.0508 123.1H56.2508C59.4508 123.1 61.8508 123.85 63.4508 125.35C65.1508 126.75 66.9508 129.3 68.8508 133L90.7508 176.95L101.101 140.8C101.401 139.4 101.551 138.25 101.551 137.35C101.551 136.05 101.301 135 100.801 134.2C100.401 133.3 99.8008 132.4 99.0008 131.5C97.9008 130.2 97.3508 129.1 97.3508 128.2C97.3508 127.6 97.4008 127.15 97.5008 126.85C97.9008 125.45 98.8008 124.5 100.201 124C101.601 123.4 103.701 123.1 106.501 123.1H122.851Z" fill="white"/>
<path d="M154.435 143.65C160.235 143.65 164.485 144.75 167.185 146.95C169.885 149.15 171.235 152.15 171.235 155.95C171.235 158.25 170.885 160.45 170.185 162.55L156.385 207.4C156.085 208.6 155.935 209.65 155.935 210.55C155.935 211.85 156.185 212.9 156.685 213.7C157.185 214.4 157.885 215.1 158.785 215.8C159.485 216.5 159.985 217.1 160.285 217.6C160.585 218 160.635 218.55 160.435 219.25C159.935 220.55 158.935 221.5 157.435 222.1C155.935 222.7 153.635 223 150.535 223H116.335C113.735 223 111.835 222.6 110.635 221.8C109.435 220.9 109.035 219.75 109.435 218.35C109.835 217.15 110.885 216.1 112.585 215.2C114.085 214.4 115.335 213.45 116.335 212.35C117.335 211.25 118.185 209.5 118.885 207.1L131.935 163.75C132.235 162.85 132.385 162.1 132.385 161.5C132.385 160.4 132.135 159.55 131.635 158.95C131.135 158.25 130.385 157.55 129.385 156.85C128.385 156.05 127.685 155.35 127.285 154.75C126.885 154.15 126.835 153.35 127.135 152.35C127.735 150.05 130.885 148.05 136.585 146.35C142.285 144.55 148.235 143.65 154.435 143.65Z" fill="white"/>
<path d="M262.767 202.3C262.567 202.7 262.467 203.3 262.467 204.1C262.467 204.8 262.617 205.35 262.917 205.75C263.317 206.15 263.817 206.35 264.417 206.35C265.617 206.35 266.617 205.85 267.417 204.85C268.317 203.75 268.917 203.2 269.217 203.2C269.717 203.2 270.117 203.55 270.417 204.25C270.717 204.85 270.867 205.6 270.867 206.5C270.967 209.4 270.017 212.25 268.017 215.05C266.017 217.75 263.067 220 259.167 221.8C255.367 223.5 250.767 224.35 245.367 224.35C238.767 224.35 233.517 222.85 229.617 219.85C225.717 216.75 223.717 212.65 223.617 207.55C223.617 203.85 224.517 199.7 226.317 195.1L234.567 173.5C235.067 172.2 235.317 171.15 235.317 170.35C235.317 169.05 234.867 168.05 233.967 167.35C233.167 166.55 232.167 166.15 230.967 166.15C228.767 166.15 226.667 167.2 224.667 169.3C222.667 171.3 221.217 173.8 220.317 176.8L211.017 207.4C210.617 208.5 210.417 209.55 210.417 210.55C210.417 211.75 210.667 212.75 211.167 213.55C211.667 214.25 212.367 215 213.267 215.8C213.967 216.4 214.467 216.95 214.767 217.45C215.067 217.95 215.117 218.55 214.917 219.25C214.517 220.55 213.567 221.5 212.067 222.1C210.567 222.7 208.217 223 205.017 223H170.817C168.217 223 166.367 222.6 165.267 221.8C164.067 220.9 163.617 219.75 163.917 218.35C164.317 217.15 165.367 216.1 167.067 215.2C168.567 214.4 169.817 213.45 170.817 212.35C171.817 211.25 172.667 209.5 173.367 207.1L186.717 163.75C186.917 163.25 187.017 162.55 187.017 161.65C187.017 160.55 186.767 159.7 186.267 159.1C185.867 158.5 185.167 157.75 184.167 156.85C183.167 156.05 182.467 155.35 182.067 154.75C181.667 154.15 181.617 153.35 181.917 152.35C182.517 150.05 185.667 148.05 191.367 146.35C197.067 144.55 203.017 143.65 209.217 143.65C214.217 143.65 218.167 145.05 221.067 147.85C223.967 150.55 225.267 154.35 224.967 159.25C229.067 153.35 233.417 149.3 238.017 147.1C242.617 144.8 247.617 143.65 253.017 143.65C259.117 143.65 264.017 145.5 267.717 149.2C271.517 152.9 273.417 157.7 273.417 163.6C273.417 166.7 272.917 169.75 271.917 172.75L262.767 202.3Z" fill="white"/>
<path d="M330.84 143.65C342.34 143.65 351.54 145.8 358.44 150.1C365.34 154.3 368.79 160.75 368.79 169.45C368.79 172.75 368.19 176.5 366.99 180.7L360.84 201.4C360.74 201.8 360.69 202.3 360.69 202.9C360.69 204.5 361.34 205.3 362.64 205.3C363.84 205.3 364.84 204.8 365.64 203.8C366.54 202.7 367.14 202.15 367.44 202.15C367.94 202.15 368.34 202.5 368.64 203.2C369.04 203.9 369.24 204.7 369.24 205.6C369.34 208.3 368.29 211.05 366.09 213.85C363.99 216.65 361.14 218.95 357.54 220.75C353.94 222.55 349.99 223.45 345.69 223.45C340.49 223.45 336.04 222.5 332.34 220.6C328.64 218.7 326.09 215.9 324.69 212.2C321.69 215.8 318.14 218.6 314.04 220.6C309.94 222.5 305.54 223.45 300.84 223.45C295.54 223.45 291.09 222.45 287.49 220.45C283.89 218.35 281.19 215.7 279.39 212.5C277.69 209.2 276.84 205.75 276.84 202.15C276.84 200.55 276.99 199 277.29 197.5C278.89 190.6 282.34 185.4 287.64 181.9C293.04 178.4 299.44 176.65 306.84 176.65C315.14 176.65 323.29 177.95 331.29 180.55L335.04 170.65C336.34 166.45 336.99 163.2 336.99 160.9C336.89 158.5 336.09 156.7 334.59 155.5C333.09 154.3 330.79 153.7 327.69 153.7C328.29 155.3 328.59 156.95 328.59 158.65C328.59 162.35 327.19 165.55 324.39 168.25C321.59 170.95 317.59 172.3 312.39 172.3C307.49 172.3 303.64 171.25 300.84 169.15C298.14 166.95 296.79 164.25 296.79 161.05C296.79 156.05 299.59 151.9 305.19 148.6C310.79 145.3 319.34 143.65 330.84 143.65ZM322.44 189.1C319.64 189.1 317.34 190.2 315.54 192.4C313.84 194.5 312.99 196.8 312.99 199.3C312.99 200.9 313.34 202.2 314.04 203.2C314.84 204.2 315.94 204.7 317.34 204.7C318.64 204.7 320.04 204.2 321.54 203.2C323.14 202.1 324.29 200.5 324.99 198.4L328.14 189.55C326.44 189.25 324.54 189.1 322.44 189.1Z" fill="white"/>
<path d="M593.714 137.5C593.714 141.1 592.864 144.25 591.164 146.95C589.464 149.55 587.314 151.55 584.714 152.95C582.214 154.25 579.764 154.9 577.364 154.9C575.064 154.9 572.864 154.35 570.764 153.25C568.764 152.05 567.464 150.7 566.864 149.2L530.414 210.1C527.614 214.8 525.064 218.15 522.764 220.15C520.564 222.05 518.014 223 515.114 223C508.414 223 504.614 218.7 503.714 210.1L498.914 166L468.614 210.1C465.114 215.2 462.264 218.65 460.064 220.45C457.964 222.15 455.514 223 452.714 223C446.614 223 442.914 218.2 441.614 208.6L432.014 140.8C431.714 138.8 431.114 137.2 430.214 136C429.414 134.8 428.364 133.65 427.064 132.55C426.164 131.75 425.514 131.1 425.114 130.6C424.714 130 424.514 129.35 424.514 128.65C424.014 124.95 426.214 123.1 431.114 123.1H468.464C470.764 123.1 472.464 123.6 473.564 124.6C474.764 125.5 475.314 126.75 475.214 128.35C475.214 129.15 474.964 129.95 474.464 130.75C474.064 131.45 473.614 132.1 473.114 132.7C472.014 133.9 471.214 135.05 470.714 136.15C470.214 137.25 470.064 138.7 470.264 140.5L474.164 176.65L496.664 144.4L496.214 140.8C496.014 138.9 495.514 137.35 494.714 136.15C493.914 134.95 492.814 133.8 491.414 132.7C490.414 131.8 489.714 131.1 489.314 130.6C488.914 130 488.714 129.35 488.714 128.65C488.214 124.95 490.414 123.1 495.314 123.1H532.814C535.114 123.1 536.864 123.6 538.064 124.6C539.264 125.5 539.814 126.75 539.714 128.35C539.714 129.65 539.014 131.1 537.614 132.7C536.614 133.9 535.864 135.05 535.364 136.15C534.864 137.25 534.664 138.7 534.764 140.5L536.564 173.2L556.814 137.8C560.114 132.1 563.314 128.15 566.414 125.95C569.514 123.65 573.564 122.5 578.564 122.5C583.064 122.5 586.714 123.85 589.514 126.55C592.314 129.25 593.714 132.9 593.714 137.5Z" fill="white"/>
<path d="M630.547 143.65C642.047 143.65 651.247 145.8 658.147 150.1C665.047 154.3 668.497 160.75 668.497 169.45C668.497 172.75 667.897 176.5 666.697 180.7L660.547 201.4C660.447 201.8 660.397 202.3 660.397 202.9C660.397 204.5 661.047 205.3 662.347 205.3C663.547 205.3 664.547 204.8 665.347 203.8C666.247 202.7 666.847 202.15 667.147 202.15C667.647 202.15 668.047 202.5 668.347 203.2C668.747 203.9 668.947 204.7 668.947 205.6C669.047 208.3 667.997 211.05 665.797 213.85C663.697 216.65 660.847 218.95 657.247 220.75C653.647 222.55 649.697 223.45 645.397 223.45C640.197 223.45 635.747 222.5 632.047 220.6C628.347 218.7 625.797 215.9 624.397 212.2C621.397 215.8 617.847 218.6 613.747 220.6C609.647 222.5 605.247 223.45 600.547 223.45C595.247 223.45 590.797 222.45 587.197 220.45C583.597 218.35 580.897 215.7 579.097 212.5C577.397 209.2 576.547 205.75 576.547 202.15C576.547 200.55 576.697 199 576.997 197.5C578.597 190.6 582.047 185.4 587.347 181.9C592.747 178.4 599.147 176.65 606.547 176.65C614.847 176.65 622.997 177.95 630.997 180.55L634.747 170.65C636.047 166.45 636.697 163.2 636.697 160.9C636.597 158.5 635.797 156.7 634.297 155.5C632.797 154.3 630.497 153.7 627.397 153.7C627.997 155.3 628.297 156.95 628.297 158.65C628.297 162.35 626.897 165.55 624.097 168.25C621.297 170.95 617.297 172.3 612.097 172.3C607.197 172.3 603.347 171.25 600.547 169.15C597.847 166.95 596.497 164.25 596.497 161.05C596.497 156.05 599.297 151.9 604.897 148.6C610.497 145.3 619.047 143.65 630.547 143.65ZM622.147 189.1C619.347 189.1 617.047 190.2 615.247 192.4C613.547 194.5 612.697 196.8 612.697 199.3C612.697 200.9 613.047 202.2 613.747 203.2C614.547 204.2 615.647 204.7 617.047 204.7C618.347 204.7 619.747 204.2 621.247 203.2C622.847 202.1 623.997 200.5 624.697 198.4L627.847 189.55C626.147 189.25 624.247 189.1 622.147 189.1Z" fill="white"/>
<path d="M748.791 143.65C754.391 143.65 758.841 145.35 762.141 148.75C765.541 152.15 767.241 156.35 767.241 161.35C767.241 163.25 767.041 165 766.641 166.6C765.641 170.7 763.741 173.85 760.941 176.05C758.141 178.25 754.791 179.35 750.891 179.35C747.091 179.35 744.191 178.45 742.191 176.65C740.291 174.85 738.591 172.45 737.091 169.45C736.291 167.75 735.541 166.5 734.841 165.7C734.141 164.9 733.341 164.5 732.441 164.5C731.441 164.5 730.541 164.9 729.741 165.7C729.041 166.5 728.391 167.9 727.791 169.9L716.241 207.4C716.041 207.9 715.941 208.65 715.941 209.65C715.941 210.95 716.291 212.05 716.991 212.95C717.791 213.75 718.841 214.55 720.141 215.35C721.341 216.15 722.141 216.8 722.541 217.3C722.941 217.8 723.091 218.45 722.991 219.25C722.791 220.55 722.041 221.5 720.741 222.1C719.541 222.7 717.441 223 714.441 223H676.041C673.441 223 671.591 222.6 670.491 221.8C669.291 220.9 668.841 219.75 669.141 218.35C669.541 217.15 670.591 216.1 672.291 215.2C673.791 214.4 675.041 213.45 676.041 212.35C677.041 211.25 677.891 209.5 678.591 207.1L691.941 163.75C692.141 163.25 692.241 162.55 692.241 161.65C692.241 160.55 691.991 159.7 691.491 159.1C691.091 158.5 690.391 157.75 689.391 156.85C688.391 156.05 687.691 155.35 687.291 154.75C686.891 154.15 686.841 153.35 687.141 152.35C687.741 150.05 690.891 148.05 696.591 146.35C702.291 144.55 708.241 143.65 714.441 143.65C718.541 143.65 721.941 144.6 724.641 146.5C727.341 148.3 729.091 150.9 729.891 154.3C734.691 147.2 740.991 143.65 748.791 143.65Z" fill="white"/>
<path d="M801.457 143.65C807.257 143.65 811.507 144.75 814.207 146.95C816.907 149.15 818.257 152.15 818.257 155.95C818.257 158.25 817.907 160.45 817.207 162.55L803.407 207.4C803.107 208.6 802.957 209.65 802.957 210.55C802.957 211.85 803.207 212.9 803.707 213.7C804.207 214.4 804.907 215.1 805.807 215.8C806.507 216.5 807.007 217.1 807.307 217.6C807.607 218 807.657 218.55 807.457 219.25C806.957 220.55 805.957 221.5 804.457 222.1C802.957 222.7 800.657 223 797.557 223H763.357C760.757 223 758.857 222.6 757.657 221.8C756.457 220.9 756.057 219.75 756.457 218.35C756.857 217.15 757.907 216.1 759.607 215.2C761.107 214.4 762.357 213.45 763.357 212.35C764.357 211.25 765.207 209.5 765.907 207.1L778.957 163.75C779.257 162.85 779.407 162.1 779.407 161.5C779.407 160.4 779.157 159.55 778.657 158.95C778.157 158.25 777.407 157.55 776.407 156.85C775.407 156.05 774.707 155.35 774.307 154.75C773.907 154.15 773.857 153.35 774.157 152.35C774.757 150.05 777.907 148.05 783.607 146.35C789.307 144.55 795.257 143.65 801.457 143.65Z" fill="white"/>
<path d="M909.788 202.3C909.588 202.7 909.488 203.3 909.488 204.1C909.488 204.8 909.638 205.35 909.938 205.75C910.338 206.15 910.838 206.35 911.438 206.35C912.638 206.35 913.638 205.85 914.438 204.85C915.338 203.75 915.938 203.2 916.238 203.2C916.738 203.2 917.138 203.55 917.438 204.25C917.738 204.85 917.888 205.6 917.888 206.5C917.988 209.4 917.038 212.25 915.038 215.05C913.038 217.75 910.088 220 906.188 221.8C902.388 223.5 897.788 224.35 892.388 224.35C885.788 224.35 880.538 222.85 876.638 219.85C872.738 216.75 870.738 212.65 870.638 207.55C870.638 203.85 871.538 199.7 873.338 195.1L881.588 173.5C882.088 172.2 882.338 171.15 882.338 170.35C882.338 169.05 881.888 168.05 880.988 167.35C880.188 166.55 879.188 166.15 877.988 166.15C875.788 166.15 873.688 167.2 871.688 169.3C869.688 171.3 868.238 173.8 867.338 176.8L858.038 207.4C857.638 208.5 857.438 209.55 857.438 210.55C857.438 211.75 857.688 212.75 858.188 213.55C858.688 214.25 859.388 215 860.288 215.8C860.988 216.4 861.488 216.95 861.788 217.45C862.088 217.95 862.138 218.55 861.938 219.25C861.538 220.55 860.588 221.5 859.088 222.1C857.588 222.7 855.238 223 852.038 223H817.838C815.238 223 813.388 222.6 812.288 221.8C811.088 220.9 810.638 219.75 810.938 218.35C811.338 217.15 812.388 216.1 814.088 215.2C815.588 214.4 816.838 213.45 817.838 212.35C818.838 211.25 819.688 209.5 820.388 207.1L833.738 163.75C833.938 163.25 834.038 162.55 834.038 161.65C834.038 160.55 833.788 159.7 833.288 159.1C832.888 158.5 832.188 157.75 831.188 156.85C830.188 156.05 829.488 155.35 829.088 154.75C828.688 154.15 828.638 153.35 828.938 152.35C829.538 150.05 832.688 148.05 838.388 146.35C844.088 144.55 850.038 143.65 856.238 143.65C861.238 143.65 865.188 145.05 868.088 147.85C870.988 150.55 872.288 154.35 871.988 159.25C876.088 153.35 880.438 149.3 885.038 147.1C889.638 144.8 894.638 143.65 900.038 143.65C906.138 143.65 911.038 145.5 914.738 149.2C918.538 152.9 920.438 157.7 920.438 163.6C920.438 166.7 919.938 169.75 918.938 172.75L909.788 202.3Z" fill="white"/>
<path d="M1013.26 143.65C1018.96 143.65 1023.51 145.25 1026.91 148.45C1030.41 151.55 1032.16 155.35 1032.16 159.85C1032.16 164.65 1030.71 168.4 1027.81 171.1C1024.91 173.8 1021.11 175.15 1016.41 175.15C1012.21 175.15 1008.96 174.1 1006.66 172C1004.36 169.8 1003.26 167.35 1003.36 164.65C1002.36 164.45 1001.51 164.85 1000.81 165.85C1000.11 166.85 999.361 168.8 998.561 171.7C998.061 173.6 997.111 175.35 995.711 176.95C1002.51 177.45 1007.56 179 1010.86 181.6C1014.16 184.2 1015.81 187.55 1015.81 191.65C1015.81 193.65 1015.46 195.65 1014.76 197.65L1013.56 202.3C1013.36 202.8 1013.26 203.45 1013.26 204.25C1013.26 205.65 1013.91 206.35 1015.21 206.35C1016.41 206.35 1017.41 205.85 1018.21 204.85C1019.11 203.75 1019.71 203.2 1020.01 203.2C1020.51 203.2 1020.91 203.55 1021.21 204.25C1021.51 204.85 1021.66 205.6 1021.66 206.5C1021.76 209.4 1020.86 212.25 1018.96 215.05C1017.16 217.75 1014.36 220 1010.56 221.8C1006.86 223.5 1002.36 224.35 997.061 224.35C990.661 224.35 985.311 222.75 981.011 219.55C976.811 216.35 974.711 212.15 974.711 206.95C974.711 205.05 975.111 202.9 975.911 200.5L978.761 193C979.261 191.2 979.511 189.9 979.511 189.1C979.511 187.8 979.061 186.85 978.161 186.25C977.361 185.65 976.061 185.35 974.261 185.35H971.261L964.511 207.4C964.211 208.6 964.061 209.65 964.061 210.55C964.061 211.85 964.311 212.9 964.811 213.7C965.311 214.4 966.011 215.1 966.911 215.8C967.611 216.5 968.111 217.1 968.411 217.6C968.711 218 968.761 218.55 968.561 219.25C968.061 220.55 967.061 221.5 965.561 222.1C964.061 222.7 961.761 223 958.661 223H924.461C921.861 223 919.961 222.6 918.761 221.8C917.561 220.9 917.161 219.75 917.561 218.35C917.961 217.15 919.011 216.1 920.711 215.2C922.211 214.4 923.461 213.45 924.461 212.35C925.461 211.25 926.311 209.5 927.011 207.1L949.811 132.25C950.111 131.35 950.261 130.6 950.261 130C950.261 128.9 949.961 128 949.361 127.3C948.861 126.6 948.161 125.9 947.261 125.2C946.261 124.4 945.511 123.7 945.011 123.1C944.611 122.5 944.561 121.7 944.861 120.7C945.461 118.4 948.611 116.4 954.311 114.7C960.011 113 965.961 112.15 972.161 112.15C977.961 112.15 982.211 113.25 984.911 115.45C987.611 117.55 988.961 120.5 988.961 124.3C988.961 126.6 988.611 128.8 987.911 130.9L974.861 173.5H979.811C981.811 173.5 983.411 172.9 984.611 171.7C985.911 170.5 986.911 168.75 987.611 166.45C990.111 159.05 993.361 153.4 997.361 149.5C1001.36 145.6 1006.66 143.65 1013.26 143.65Z" fill="white"/>
<path id="path" d="M163.217 118.292L1031 98.325L646.731 256.878L962.503 436.165L2 281.988L607.091 1L948.997 473.991L431.773 319.16L772.563 26.6344L163.217 118.292Z" stroke="black"/>
</svg>
