<svg class="SVGItem" viewBox="0 0 1030 580" fill="currentColor" xmlns="http://www.w3.org/2000/svg">
<path d="M120.346 245.605C124.447 245.605 126.498 246.905 126.498 249.506C126.498 250.207 126.448 250.707 126.348 251.007C126.048 252.007 125.597 252.807 124.997 253.408C124.397 253.908 123.547 254.508 122.446 255.208C120.946 256.109 119.695 257.109 118.695 258.21C117.695 259.31 116.844 261.011 116.144 263.311L97.5369 329.937C95.8362 335.939 93.6854 340.141 91.0845 342.541C88.5835 344.942 85.0822 346.143 80.5805 346.143C76.579 346.143 73.2277 344.992 70.5267 342.691C67.9257 340.291 65.4748 336.639 63.1739 331.737L40.5153 284.019L27.9106 327.836C27.6104 329.136 27.4604 330.287 27.4604 331.287C27.4604 332.588 27.6605 333.688 28.0606 334.588C28.5608 335.389 29.211 336.239 30.0113 337.139C31.1118 338.44 31.662 339.54 31.662 340.441C31.662 341.041 31.612 341.491 31.5119 341.791C31.1118 343.192 30.2114 344.192 28.8109 344.792C27.4104 345.292 25.3096 345.543 22.5085 345.543H6.15233C2.05078 345.543 0 344.242 0 341.641C0 340.941 0.0500189 340.441 0.150057 340.141C0.45017 339.14 0.900341 338.39 1.50057 337.89C2.10079 337.289 2.95112 336.639 4.05153 335.939C5.5521 335.039 6.80257 334.038 7.80295 332.938C8.80333 331.837 9.65365 330.137 10.3539 327.836L29.4111 260.46L27.0102 255.509C26.0098 253.508 25.5096 251.757 25.5096 250.257C25.5096 247.155 27.5104 245.605 31.5119 245.605H53.7203C56.9215 245.605 59.3224 246.355 60.923 247.856C62.6237 249.256 64.4244 251.807 66.3251 255.509L88.2334 299.475L98.5873 263.311C98.8874 261.911 99.0375 260.76 99.0375 259.86C99.0375 258.56 98.7874 257.509 98.2872 256.709C97.887 255.809 97.2868 254.908 96.4865 254.008C95.3861 252.707 94.8359 251.607 94.8359 250.707C94.8359 250.106 94.8859 249.656 94.9859 249.356C95.3861 247.956 96.2864 247.005 97.6869 246.505C99.0875 245.905 101.188 245.605 103.989 245.605H120.346Z" fill="currentColor"/>
<path d="M151.942 266.163C157.744 266.163 161.996 267.263 164.697 269.464C167.398 271.665 168.748 274.666 168.748 278.467C168.748 280.768 168.398 282.969 167.698 285.07L153.893 329.937C153.592 331.137 153.442 332.188 153.442 333.088C153.442 334.388 153.692 335.439 154.193 336.239C154.693 336.939 155.393 337.64 156.293 338.34C156.994 339.04 157.494 339.64 157.794 340.141C158.094 340.541 158.144 341.091 157.944 341.791C157.444 343.092 156.444 344.042 154.943 344.642C153.442 345.242 151.142 345.543 148.04 345.543H113.827C111.226 345.543 109.326 345.142 108.125 344.342C106.925 343.442 106.525 342.291 106.925 340.891C107.325 339.69 108.375 338.64 110.076 337.74C111.577 336.939 112.827 335.989 113.827 334.889C114.828 333.788 115.678 332.037 116.378 329.637L129.433 286.27C129.733 285.37 129.883 284.62 129.883 284.019C129.883 282.919 129.633 282.069 129.133 281.468C128.633 280.768 127.883 280.068 126.882 279.368C125.882 278.567 125.182 277.867 124.782 277.267C124.381 276.667 124.331 275.866 124.631 274.866C125.232 272.565 128.383 270.564 134.085 268.864C139.787 267.063 145.739 266.163 151.942 266.163Z" fill="currentColor"/>
<path d="M260.314 324.835C260.114 325.235 260.014 325.835 260.014 326.635C260.014 327.336 260.164 327.886 260.465 328.286C260.865 328.686 261.365 328.886 261.965 328.886C263.166 328.886 264.166 328.386 264.966 327.386C265.867 326.285 266.467 325.735 266.767 325.735C267.267 325.735 267.667 326.085 267.967 326.785C268.267 327.386 268.418 328.136 268.418 329.036C268.518 331.937 267.567 334.788 265.566 337.59C263.566 340.291 260.615 342.541 256.713 344.342C252.912 346.043 248.31 346.893 242.908 346.893C236.305 346.893 231.053 345.393 227.152 342.391C223.25 339.29 221.25 335.189 221.15 330.087C221.15 326.385 222.05 322.234 223.851 317.632L232.104 296.024C232.604 294.723 232.854 293.673 232.854 292.873C232.854 291.572 232.404 290.572 231.504 289.872C230.703 289.071 229.703 288.671 228.502 288.671C226.302 288.671 224.201 289.721 222.2 291.822C220.199 293.823 218.749 296.324 217.848 299.325L208.545 329.937C208.145 331.037 207.945 332.087 207.945 333.088C207.945 334.288 208.195 335.289 208.695 336.089C209.195 336.789 209.895 337.54 210.796 338.34C211.496 338.94 211.996 339.49 212.296 339.99C212.596 340.491 212.646 341.091 212.446 341.791C212.046 343.092 211.096 344.042 209.595 344.642C208.095 345.242 205.744 345.543 202.543 345.543H168.33C165.729 345.543 163.878 345.142 162.778 344.342C161.577 343.442 161.127 342.291 161.427 340.891C161.827 339.69 162.878 338.64 164.578 337.74C166.079 336.939 167.329 335.989 168.33 334.889C169.33 333.788 170.18 332.037 170.881 329.637L184.236 286.27C184.436 285.77 184.536 285.07 184.536 284.169C184.536 283.069 184.286 282.219 183.786 281.618C183.385 281.018 182.685 280.268 181.685 279.368C180.684 278.567 179.984 277.867 179.584 277.267C179.184 276.667 179.134 275.866 179.434 274.866C180.034 272.565 183.185 270.564 188.887 268.864C194.59 267.063 200.542 266.163 206.744 266.163C211.746 266.163 215.698 267.563 218.599 270.364C221.5 273.065 222.8 276.867 222.5 281.768C226.602 275.866 230.953 271.815 235.555 269.614C240.157 267.313 245.159 266.163 250.561 266.163C256.663 266.163 261.565 268.013 265.266 271.715C269.068 275.416 270.968 280.218 270.968 286.12C270.968 289.221 270.468 292.272 269.468 295.274L260.314 324.835Z" fill="currentColor"/>
<path d="M328.413 266.163C339.918 266.163 349.121 268.313 356.024 272.615C362.926 276.817 366.378 283.269 366.378 291.972C366.378 295.274 365.777 299.025 364.577 303.227L358.425 323.934C358.325 324.335 358.275 324.835 358.275 325.435C358.275 327.036 358.925 327.836 360.225 327.836C361.426 327.836 362.426 327.336 363.226 326.335C364.127 325.235 364.727 324.685 365.027 324.685C365.527 324.685 365.927 325.035 366.228 325.735C366.628 326.435 366.828 327.236 366.828 328.136C366.928 330.837 365.877 333.588 363.677 336.389C361.576 339.19 358.725 341.491 355.123 343.292C351.522 345.092 347.57 345.993 343.269 345.993C338.067 345.993 333.615 345.042 329.914 343.142C326.212 341.241 323.661 338.44 322.261 334.738C319.26 338.34 315.708 341.141 311.607 343.142C307.505 345.042 303.104 345.993 298.402 345.993C293.1 345.993 288.648 344.992 285.047 342.992C281.445 340.891 278.744 338.24 276.944 335.039C275.243 331.737 274.393 328.286 274.393 324.685C274.393 323.084 274.543 321.533 274.843 320.033C276.444 313.13 279.895 307.928 285.197 304.427C290.599 300.926 297.001 299.175 304.404 299.175C312.707 299.175 320.86 300.476 328.863 303.076L332.615 293.173C333.915 288.971 334.566 285.72 334.566 283.419C334.466 281.018 333.665 279.217 332.165 278.017C330.664 276.817 328.363 276.216 325.262 276.216C325.862 277.817 326.162 279.468 326.162 281.168C326.162 284.87 324.762 288.071 321.961 290.772C319.16 293.473 315.158 294.823 309.956 294.823C305.054 294.823 301.203 293.773 298.402 291.672C295.701 289.471 294.35 286.77 294.35 283.569C294.35 278.567 297.151 274.416 302.754 271.114C308.356 267.813 316.909 266.163 328.413 266.163ZM320.01 311.63C317.209 311.63 314.908 312.73 313.107 314.931C311.407 317.032 310.556 319.333 310.556 321.834C310.556 323.434 310.907 324.735 311.607 325.735C312.407 326.735 313.508 327.236 314.908 327.236C316.209 327.236 317.609 326.735 319.11 325.735C320.71 324.635 321.861 323.034 322.561 320.933L325.712 312.08C324.012 311.78 322.111 311.63 320.01 311.63Z" fill="currentColor"/>
<path d="M591.387 260.01C591.387 263.612 590.536 266.763 588.836 269.464C587.135 272.065 584.984 274.066 582.383 275.466C579.882 276.767 577.431 277.417 575.03 277.417C572.729 277.417 570.529 276.867 568.428 275.766C566.427 274.566 565.127 273.215 564.526 271.715L528.063 332.638C525.262 337.339 522.711 340.691 520.41 342.691C518.209 344.592 515.658 345.543 512.757 345.543C506.054 345.543 502.253 341.241 501.352 332.638L496.551 288.521L466.239 332.638C462.738 337.74 459.887 341.191 457.686 342.992C455.585 344.692 453.134 345.543 450.333 345.543C444.231 345.543 440.529 340.741 439.229 331.137L429.625 263.311C429.325 261.311 428.725 259.71 427.825 258.51C427.024 257.309 425.974 256.159 424.673 255.058C423.773 254.258 423.123 253.608 422.723 253.108C422.323 252.507 422.122 251.857 422.122 251.157C421.622 247.455 423.823 245.605 428.725 245.605H466.089C468.39 245.605 470.091 246.105 471.191 247.105C472.392 248.006 472.942 249.256 472.842 250.857C472.842 251.657 472.592 252.457 472.091 253.258C471.691 253.958 471.241 254.608 470.741 255.208C469.64 256.409 468.84 257.559 468.34 258.66C467.84 259.76 467.69 261.211 467.89 263.011L471.791 299.175L494.3 266.913L493.85 263.311C493.65 261.411 493.149 259.86 492.349 258.66C491.549 257.459 490.448 256.309 489.048 255.208C488.047 254.308 487.347 253.608 486.947 253.108C486.547 252.507 486.347 251.857 486.347 251.157C485.847 247.455 488.047 245.605 492.949 245.605H530.463C532.764 245.605 534.515 246.105 535.715 247.105C536.916 248.006 537.466 249.256 537.366 250.857C537.366 252.157 536.666 253.608 535.265 255.208C534.265 256.409 533.515 257.559 533.014 258.66C532.514 259.76 532.314 261.211 532.414 263.011L534.215 295.724L554.473 260.31C557.774 254.608 560.975 250.657 564.076 248.456C567.177 246.155 571.229 245.005 576.231 245.005C580.732 245.005 584.384 246.355 587.185 249.056C589.986 251.757 591.387 255.408 591.387 260.01Z" fill="currentColor"/>
<path d="M628.234 266.163C639.738 266.163 648.941 268.313 655.844 272.615C662.747 276.817 666.198 283.269 666.198 291.972C666.198 295.274 665.598 299.025 664.397 303.227L658.245 323.934C658.145 324.335 658.095 324.835 658.095 325.435C658.095 327.036 658.745 327.836 660.046 327.836C661.246 327.836 662.246 327.336 663.047 326.335C663.947 325.235 664.547 324.685 664.847 324.685C665.348 324.685 665.748 325.035 666.048 325.735C666.448 326.435 666.648 327.236 666.648 328.136C666.748 330.837 665.698 333.588 663.497 336.389C661.396 339.19 658.545 341.491 654.944 343.292C651.342 345.092 647.391 345.993 643.089 345.993C637.887 345.993 633.436 345.042 629.734 343.142C626.033 341.241 623.482 338.44 622.081 334.738C619.08 338.34 615.529 341.141 611.427 343.142C607.326 345.042 602.924 345.993 598.222 345.993C592.92 345.993 588.469 344.992 584.867 342.992C581.266 340.891 578.565 338.24 576.764 335.039C575.064 331.737 574.213 328.286 574.213 324.685C574.213 323.084 574.363 321.533 574.663 320.033C576.264 313.13 579.715 307.928 585.017 304.427C590.419 300.926 596.822 299.175 604.225 299.175C612.528 299.175 620.681 300.476 628.684 303.076L632.435 293.173C633.736 288.971 634.386 285.72 634.386 283.419C634.286 281.018 633.486 279.217 631.985 278.017C630.484 276.817 628.184 276.216 625.082 276.216C625.683 277.817 625.983 279.468 625.983 281.168C625.983 284.87 624.582 288.071 621.781 290.772C618.98 293.473 614.979 294.823 609.777 294.823C604.875 294.823 601.023 293.773 598.222 291.672C595.521 289.471 594.171 286.77 594.171 283.569C594.171 278.567 596.972 274.416 602.574 271.114C608.176 267.813 616.729 266.163 628.234 266.163ZM619.83 311.63C617.029 311.63 614.729 312.73 612.928 314.931C611.227 317.032 610.377 319.333 610.377 321.834C610.377 323.434 610.727 324.735 611.427 325.735C612.228 326.735 613.328 327.236 614.729 327.236C616.029 327.236 617.43 326.735 618.93 325.735C620.531 324.635 621.681 323.034 622.381 320.933L625.533 312.08C623.832 311.78 621.931 311.63 619.83 311.63Z" fill="currentColor"/>
<path d="M746.523 266.163C752.125 266.163 756.577 267.863 759.878 271.264C763.279 274.666 764.98 278.867 764.98 283.869C764.98 285.77 764.78 287.521 764.38 289.121C763.379 293.223 761.479 296.374 758.677 298.575C755.876 300.776 752.525 301.876 748.624 301.876C744.822 301.876 741.921 300.976 739.92 299.175C738.02 297.374 736.319 294.973 734.818 291.972C734.018 290.272 733.268 289.021 732.568 288.221C731.867 287.421 731.067 287.02 730.167 287.02C729.166 287.02 728.266 287.421 727.466 288.221C726.765 289.021 726.115 290.422 725.515 292.422L713.961 329.937C713.76 330.437 713.66 331.187 713.66 332.188C713.66 333.488 714.011 334.588 714.711 335.489C715.511 336.289 716.562 337.089 717.862 337.89C719.063 338.69 719.863 339.34 720.263 339.84C720.663 340.341 720.813 340.991 720.713 341.791C720.513 343.092 719.763 344.042 718.462 344.642C717.262 345.242 715.161 345.543 712.16 345.543H673.745C671.144 345.543 669.294 345.142 668.193 344.342C666.993 343.442 666.543 342.291 666.843 340.891C667.243 339.69 668.293 338.64 669.994 337.74C671.494 336.939 672.745 335.989 673.745 334.889C674.746 333.788 675.596 332.037 676.296 329.637L689.651 286.27C689.851 285.77 689.951 285.07 689.951 284.169C689.951 283.069 689.701 282.219 689.201 281.618C688.801 281.018 688.101 280.268 687.1 279.368C686.1 278.567 685.4 277.867 685 277.267C684.599 276.667 684.549 275.866 684.85 274.866C685.45 272.565 688.601 270.564 694.303 268.864C700.005 267.063 705.958 266.163 712.16 266.163C716.261 266.163 719.663 267.113 722.364 269.014C725.065 270.814 726.815 273.415 727.616 276.817C732.418 269.714 738.72 266.163 746.523 266.163Z" fill="currentColor"/>
<path d="M799.208 266.163C805.01 266.163 809.262 267.263 811.963 269.464C814.664 271.665 816.014 274.666 816.014 278.467C816.014 280.768 815.664 282.969 814.964 285.07L801.159 329.937C800.859 331.137 800.709 332.188 800.709 333.088C800.709 334.388 800.959 335.439 801.459 336.239C801.959 336.939 802.659 337.64 803.56 338.34C804.26 339.04 804.76 339.64 805.06 340.141C805.36 340.541 805.41 341.091 805.21 341.791C804.71 343.092 803.71 344.042 802.209 344.642C800.709 345.242 798.408 345.543 795.307 345.543H761.094C758.493 345.543 756.592 345.142 755.391 344.342C754.191 343.442 753.791 342.291 754.191 340.891C754.591 339.69 755.642 338.64 757.342 337.74C758.843 336.939 760.093 335.989 761.094 334.889C762.094 333.788 762.944 332.037 763.645 329.637L776.7 286.27C777 285.37 777.15 284.62 777.15 284.019C777.15 282.919 776.9 282.069 776.399 281.468C775.899 280.768 775.149 280.068 774.149 279.368C773.148 278.567 772.448 277.867 772.048 277.267C771.648 276.667 771.598 275.866 771.898 274.866C772.498 272.565 775.649 270.564 781.351 268.864C787.053 267.063 793.006 266.163 799.208 266.163Z" fill="currentColor"/>
<path d="M907.581 324.835C907.381 325.235 907.281 325.835 907.281 326.635C907.281 327.336 907.431 327.886 907.731 328.286C908.131 328.686 908.631 328.886 909.231 328.886C910.432 328.886 911.432 328.386 912.232 327.386C913.133 326.285 913.733 325.735 914.033 325.735C914.533 325.735 914.933 326.085 915.234 326.785C915.534 327.386 915.684 328.136 915.684 329.036C915.784 331.937 914.833 334.788 912.833 337.59C910.832 340.291 907.881 342.541 903.979 344.342C900.178 346.043 895.576 346.893 890.174 346.893C883.572 346.893 878.32 345.393 874.418 342.391C870.517 339.29 868.516 335.189 868.416 330.087C868.416 326.385 869.316 322.234 871.117 317.632L879.37 296.024C879.87 294.723 880.12 293.673 880.12 292.873C880.12 291.572 879.67 290.572 878.77 289.872C877.969 289.071 876.969 288.671 875.769 288.671C873.568 288.671 871.467 289.721 869.466 291.822C867.466 293.823 866.015 296.324 865.115 299.325L855.811 329.937C855.411 331.037 855.211 332.087 855.211 333.088C855.211 334.288 855.461 335.289 855.961 336.089C856.461 336.789 857.162 337.54 858.062 338.34C858.762 338.94 859.262 339.49 859.562 339.99C859.863 340.491 859.913 341.091 859.713 341.791C859.312 343.092 858.362 344.042 856.861 344.642C855.361 345.242 853.01 345.543 849.809 345.543H815.596C812.995 345.543 811.144 345.142 810.044 344.342C808.843 343.442 808.393 342.291 808.693 340.891C809.093 339.69 810.144 338.64 811.844 337.74C813.345 336.939 814.595 335.989 815.596 334.889C816.596 333.788 817.447 332.037 818.147 329.637L831.502 286.27C831.702 285.77 831.802 285.07 831.802 284.169C831.802 283.069 831.552 282.219 831.052 281.618C830.652 281.018 829.951 280.268 828.951 279.368C827.951 278.567 827.25 277.867 826.85 277.267C826.45 276.667 826.4 275.866 826.7 274.866C827.3 272.565 830.452 270.564 836.154 268.864C841.856 267.063 847.808 266.163 854.01 266.163C859.012 266.163 862.964 267.563 865.865 270.364C868.766 273.065 870.066 276.867 869.766 281.768C873.868 275.866 878.22 271.815 882.821 269.614C887.423 267.313 892.425 266.163 897.827 266.163C903.929 266.163 908.831 268.013 912.533 271.715C916.334 275.416 918.235 280.218 918.235 286.12C918.235 289.221 917.735 292.272 916.734 295.274L907.581 324.835Z" fill="currentColor"/>
<path d="M1011.09 266.163C1016.8 266.163 1021.35 267.763 1024.75 270.964C1028.25 274.066 1030 277.867 1030 282.369C1030 287.17 1028.55 290.922 1025.65 293.623C1022.75 296.324 1018.95 297.674 1014.24 297.674C1010.04 297.674 1006.79 296.624 1004.49 294.523C1002.19 292.322 1001.09 289.872 1001.19 287.17C1000.19 286.97 999.338 287.371 998.638 288.371C997.938 289.371 997.188 291.322 996.387 294.223C995.887 296.124 994.937 297.875 993.536 299.475C1000.34 299.975 1005.39 301.526 1008.69 304.127C1011.99 306.728 1013.64 310.079 1013.64 314.181C1013.64 316.181 1013.29 318.182 1012.59 320.183L1011.39 324.835C1011.19 325.335 1011.09 325.985 1011.09 326.785C1011.09 328.186 1011.74 328.886 1013.04 328.886C1014.24 328.886 1015.24 328.386 1016.04 327.386C1016.95 326.285 1017.55 325.735 1017.85 325.735C1018.35 325.735 1018.75 326.085 1019.05 326.785C1019.35 327.386 1019.5 328.136 1019.5 329.036C1019.6 331.937 1018.7 334.788 1016.8 337.59C1014.99 340.291 1012.19 342.541 1008.39 344.342C1004.69 346.043 1000.19 346.893 994.887 346.893C988.484 346.893 983.132 345.292 978.831 342.091C974.629 338.89 972.528 334.688 972.528 329.486C972.528 327.586 972.928 325.435 973.729 323.034L976.58 315.531C977.08 313.731 977.33 312.43 977.33 311.63C977.33 310.329 976.88 309.379 975.98 308.779C975.179 308.178 973.879 307.878 972.078 307.878H969.077L962.324 329.937C962.024 331.137 961.874 332.188 961.874 333.088C961.874 334.388 962.124 335.439 962.625 336.239C963.125 336.939 963.825 337.64 964.725 338.34C965.426 339.04 965.926 339.64 966.226 340.141C966.526 340.541 966.576 341.091 966.376 341.791C965.876 343.092 964.875 344.042 963.375 344.642C961.874 345.242 959.573 345.543 956.472 345.543H922.259C919.658 345.543 917.758 345.142 916.557 344.342C915.357 343.442 914.957 342.291 915.357 340.891C915.757 339.69 916.807 338.64 918.508 337.74C920.008 336.939 921.259 335.989 922.259 334.889C923.26 333.788 924.11 332.037 924.81 329.637L947.619 254.758C947.919 253.858 948.069 253.108 948.069 252.507C948.069 251.407 947.769 250.507 947.169 249.806C946.668 249.106 945.968 248.406 945.068 247.706C944.068 246.905 943.317 246.205 942.817 245.605C942.417 245.005 942.367 244.204 942.667 243.204C943.267 240.903 946.418 238.902 952.121 237.202C957.823 235.501 963.775 234.651 969.977 234.651C975.779 234.651 980.031 235.751 982.732 237.952C985.433 240.053 986.784 243.004 986.784 246.805C986.784 249.106 986.434 251.307 985.733 253.408L972.678 296.024H977.63C979.631 296.024 981.232 295.424 982.432 294.223C983.733 293.023 984.733 291.272 985.433 288.971C987.934 281.568 991.185 275.916 995.187 272.015C999.188 268.113 1004.49 266.163 1011.09 266.163Z" fill="currentColor"/>
</svg>
