<svg class="SVGItem" viewBox="0 0 1030 580" fill="none" xmlns="http://www.w3.org/2000/svg">
<path id="love" d="M157.896 261.755L155.529 258.831C146.616 249.106 140.807 242.573 141.562 235.393C142.178 229.535 147.189 225.477 153.047 226.092C156.259 226.43 159.313 228.279 161.133 230.954C163.47 228.716 166.841 227.542 170.053 227.88C175.911 228.495 179.969 233.507 179.354 239.365C178.599 246.545 171.559 251.728 160.819 259.387L157.896 261.755Z" fill="currentColor"/>
<path id="path" d="M158.94 242.593C-102.825 601.418 895.238 645.169 977.735 275.595C1060.23 -93.9777 127.482 93.1491 473.105 225.591C818.729 358.032 1131.64 240.103 977.735 391.108C823.834 542.113 69.9301 424.54 74.0165 319.6C78.103 214.661 1067.12 -104.292 964.972 236.092C864.787 569.926 95.6154 357.604 95.6154 357.604" stroke="red"/>
</svg>
