<svg fill="none" viewBox="0 0 1031 219">
  <path id="1" d="M805.896 71.7545L803.529 68.8311C794.616 59.1062 788.807 52.5732 789.562 45.3928C790.178 39.535 795.189 35.4766 801.047 36.0923C804.259 36.4299 807.313 38.2792 809.133 40.9542C811.47 38.7162 814.841 37.5421 818.053 37.8798C823.911 38.4954 827.969 43.5071 827.354 49.3648C826.599 56.5453 819.559 61.7278 808.819 69.3871L805.896 71.7545Z" fill="#fff"/>
  <path id="2" d="M159.056 71.2662L156.689 68.3428C147.776 58.6179 141.967 52.0849 142.722 44.9045C143.338 39.0467 148.349 34.9884 154.207 35.604C157.42 35.9417 160.473 37.791 162.293 40.4659C164.63 38.2279 168.001 37.0539 171.214 37.3915C177.071 38.0072 181.13 43.0188 180.514 48.8766C179.759 56.057 172.719 61.2395 161.98 68.8989L159.056 71.2662Z" fill="#fff"/>
  <path id="3" d="M120.851 54.1C124.951 54.1 127.001 55.4 127.001 58C127.001 58.7 126.951 59.2 126.851 59.5C126.551 60.5 126.101 61.3 125.501 61.9C124.901 62.4 124.051 63 122.951 63.7C121.451 64.6 120.201 65.6 119.201 66.7C118.201 67.8 117.351 69.5 116.651 71.8L98.0508 138.4C96.3508 144.4 94.2008 148.6 91.6008 151C89.1008 153.4 85.6008 154.6 81.1008 154.6C77.1008 154.6 73.7508 153.45 71.0508 151.15C68.4508 148.75 66.0008 145.1 63.7008 140.2L41.0508 92.5L28.4508 136.3C28.1508 137.6 28.0008 138.75 28.0008 139.75C28.0008 141.05 28.2008 142.15 28.6008 143.05C29.1008 143.85 29.7508 144.7 30.5508 145.6C31.6508 146.9 32.2008 148 32.2008 148.9C32.2008 149.5 32.1508 149.95 32.0508 150.25C31.6508 151.65 30.7508 152.65 29.3508 153.25C27.9508 153.75 25.8508 154 23.0508 154H6.70078C2.60078 154 0.550781 152.7 0.550781 150.1C0.550781 149.4 0.600781 148.9 0.700781 148.6C1.00078 147.6 1.45078 146.85 2.05078 146.35C2.65078 145.75 3.50078 145.1 4.60078 144.4C6.10078 143.5 7.35078 142.5 8.35078 141.4C9.35078 140.3 10.2008 138.6 10.9008 136.3L29.9508 68.95L27.5508 64C26.5508 62 26.0508 60.25 26.0508 58.75C26.0508 55.65 28.0508 54.1 32.0508 54.1H54.2508C57.4508 54.1 59.8508 54.85 61.4508 56.35C63.1508 57.75 64.9508 60.3 66.8508 64L88.7508 107.95L99.1008 71.8C99.4008 70.4 99.5508 69.25 99.5508 68.35C99.5508 67.05 99.3008 66 98.8008 65.2C98.4008 64.3 97.8008 63.4 97.0008 62.5C95.9008 61.2 95.3508 60.1 95.3508 59.2C95.3508 58.6 95.4008 58.15 95.5008 57.85C95.9008 56.45 96.8008 55.5 98.2008 55C99.6008 54.4 101.701 54.1 104.501 54.1H120.851Z" fill="#fff"/>
  <path id="4" d="M152.435 74.65C158.235 74.65 162.485 75.75 165.185 77.95C167.885 80.15 169.235 83.15 169.235 86.95C169.235 89.25 168.885 91.45 168.185 93.55L154.385 138.4C154.085 139.6 153.935 140.65 153.935 141.55C153.935 142.85 154.185 143.9 154.685 144.7C155.185 145.4 155.885 146.1 156.785 146.8C157.485 147.5 157.985 148.1 158.285 148.6C158.585 149 158.635 149.55 158.435 150.25C157.935 151.55 156.935 152.5 155.435 153.1C153.935 153.7 151.635 154 148.535 154H114.335C111.735 154 109.835 153.6 108.635 152.8C107.435 151.9 107.035 150.75 107.435 149.35C107.835 148.15 108.885 147.1 110.585 146.2C112.085 145.4 113.335 144.45 114.335 143.35C115.335 142.25 116.185 140.5 116.885 138.1L129.935 94.75C130.235 93.85 130.385 93.1 130.385 92.5C130.385 91.4 130.135 90.55 129.635 89.95C129.135 89.25 128.385 88.55 127.385 87.85C126.385 87.05 125.685 86.35 125.285 85.75C124.885 85.15 124.835 84.35 125.135 83.35C125.735 81.05 128.885 79.05 134.585 77.35C140.285 75.55 146.235 74.65 152.435 74.65Z" fill="#fff"/>
  <path id="5" d="M260.767 133.3C260.567 133.7 260.467 134.3 260.467 135.1C260.467 135.8 260.617 136.35 260.917 136.75C261.317 137.15 261.817 137.35 262.417 137.35C263.617 137.35 264.617 136.85 265.417 135.85C266.317 134.75 266.917 134.2 267.217 134.2C267.717 134.2 268.117 134.55 268.417 135.25C268.717 135.85 268.867 136.6 268.867 137.5C268.967 140.4 268.017 143.25 266.017 146.05C264.017 148.75 261.067 151 257.167 152.8C253.367 154.5 248.767 155.35 243.367 155.35C236.767 155.35 231.517 153.85 227.617 150.85C223.717 147.75 221.717 143.65 221.617 138.55C221.617 134.85 222.517 130.7 224.317 126.1L232.567 104.5C233.067 103.2 233.317 102.15 233.317 101.35C233.317 100.05 232.867 99.05 231.967 98.35C231.167 97.55 230.167 97.15 228.967 97.15C226.767 97.15 224.667 98.2 222.667 100.3C220.667 102.3 219.217 104.8 218.317 107.8L209.017 138.4C208.617 139.5 208.417 140.55 208.417 141.55C208.417 142.75 208.667 143.75 209.167 144.55C209.667 145.25 210.367 146 211.267 146.8C211.967 147.4 212.467 147.95 212.767 148.45C213.067 148.95 213.117 149.55 212.917 150.25C212.517 151.55 211.567 152.5 210.067 153.1C208.567 153.7 206.217 154 203.017 154H168.817C166.217 154 164.367 153.6 163.267 152.8C162.067 151.9 161.617 150.75 161.917 149.35C162.317 148.15 163.367 147.1 165.067 146.2C166.567 145.4 167.817 144.45 168.817 143.35C169.817 142.25 170.667 140.5 171.367 138.1L184.717 94.75C184.917 94.25 185.017 93.55 185.017 92.65C185.017 91.55 184.767 90.7 184.267 90.1C183.867 89.5 183.167 88.75 182.167 87.85C181.167 87.05 180.467 86.35 180.067 85.75C179.667 85.15 179.617 84.35 179.917 83.35C180.517 81.05 183.667 79.05 189.367 77.35C195.067 75.55 201.017 74.65 207.217 74.65C212.217 74.65 216.167 76.05 219.067 78.85C221.967 81.55 223.267 85.35 222.967 90.25C227.067 84.35 231.417 80.3 236.017 78.1C240.617 75.8 245.617 74.65 251.017 74.65C257.117 74.65 262.017 76.5 265.717 80.2C269.517 83.9 271.417 88.7 271.417 94.6C271.417 97.7 270.917 100.75 269.917 103.75L260.767 133.3Z" fill="#fff"/>
  <path id="6" d="M328.84 74.65C340.34 74.65 349.54 76.8 356.44 81.1C363.34 85.3 366.79 91.75 366.79 100.45C366.79 103.75 366.19 107.5 364.99 111.7L358.84 132.4C358.74 132.8 358.69 133.3 358.69 133.9C358.69 135.5 359.34 136.3 360.64 136.3C361.84 136.3 362.84 135.8 363.64 134.8C364.54 133.7 365.14 133.15 365.44 133.15C365.94 133.15 366.34 133.5 366.64 134.2C367.04 134.9 367.24 135.7 367.24 136.6C367.34 139.3 366.29 142.05 364.09 144.85C361.99 147.65 359.14 149.95 355.54 151.75C351.94 153.55 347.99 154.45 343.69 154.45C338.49 154.45 334.04 153.5 330.34 151.6C326.64 149.7 324.09 146.9 322.69 143.2C319.69 146.8 316.14 149.6 312.04 151.6C307.94 153.5 303.54 154.45 298.84 154.45C293.54 154.45 289.09 153.45 285.49 151.45C281.89 149.35 279.19 146.7 277.39 143.5C275.69 140.2 274.84 136.75 274.84 133.15C274.84 131.55 274.99 130 275.29 128.5C276.89 121.6 280.34 116.4 285.64 112.9C291.04 109.4 297.44 107.65 304.84 107.65C313.14 107.65 321.29 108.95 329.29 111.55L333.04 101.65C334.34 97.45 334.99 94.2 334.99 91.9C334.89 89.5 334.09 87.7 332.59 86.5C331.09 85.3 328.79 84.7 325.69 84.7C326.29 86.3 326.59 87.95 326.59 89.65C326.59 93.35 325.19 96.55 322.39 99.25C319.59 101.95 315.59 103.3 310.39 103.3C305.49 103.3 301.64 102.25 298.84 100.15C296.14 97.95 294.79 95.25 294.79 92.05C294.79 87.05 297.59 82.9 303.19 79.6C308.79 76.3 317.34 74.65 328.84 74.65ZM320.44 120.1C317.64 120.1 315.34 121.2 313.54 123.4C311.84 125.5 310.99 127.8 310.99 130.3C310.99 131.9 311.34 133.2 312.04 134.2C312.84 135.2 313.94 135.7 315.34 135.7C316.64 135.7 318.04 135.2 319.54 134.2C321.14 133.1 322.29 131.5 322.99 129.4L326.14 120.55C324.44 120.25 322.54 120.1 320.44 120.1Z" fill="#fff"/>
  <path id="7" d="M591.714 68.5C591.714 72.1 590.864 75.25 589.164 77.95C587.464 80.55 585.314 82.55 582.714 83.95C580.214 85.25 577.764 85.9 575.364 85.9C573.064 85.9 570.864 85.35 568.764 84.25C566.764 83.05 565.464 81.7 564.864 80.2L528.414 141.1C525.614 145.8 523.064 149.15 520.764 151.15C518.564 153.05 516.014 154 513.114 154C506.414 154 502.614 149.7 501.714 141.1L496.914 97L466.614 141.1C463.114 146.2 460.264 149.65 458.064 151.45C455.964 153.15 453.514 154 450.714 154C444.614 154 440.914 149.2 439.614 139.6L430.014 71.8C429.714 69.8 429.114 68.2 428.214 67C427.414 65.8 426.364 64.65 425.064 63.55C424.164 62.75 423.514 62.1 423.114 61.6C422.714 61 422.514 60.35 422.514 59.65C422.014 55.95 424.214 54.1 429.114 54.1H466.464C468.764 54.1 470.464 54.6 471.564 55.6C472.764 56.5 473.314 57.75 473.214 59.35C473.214 60.15 472.964 60.95 472.464 61.75C472.064 62.45 471.614 63.1 471.114 63.7C470.014 64.9 469.214 66.05 468.714 67.15C468.214 68.25 468.064 69.7 468.264 71.5L472.164 107.65L494.664 75.4L494.214 71.8C494.014 69.9 493.514 68.35 492.714 67.15C491.914 65.95 490.814 64.8 489.414 63.7C488.414 62.8 487.714 62.1 487.314 61.6C486.914 61 486.714 60.35 486.714 59.65C486.214 55.95 488.414 54.1 493.314 54.1H530.814C533.114 54.1 534.864 54.6 536.064 55.6C537.264 56.5 537.814 57.75 537.714 59.35C537.714 60.65 537.014 62.1 535.614 63.7C534.614 64.9 533.864 66.05 533.364 67.15C532.864 68.25 532.664 69.7 532.764 71.5L534.564 104.2L554.814 68.8C558.114 63.1 561.314 59.15 564.414 56.95C567.514 54.65 571.564 53.5 576.564 53.5C581.064 53.5 584.714 54.85 587.514 57.55C590.314 60.25 591.714 63.9 591.714 68.5Z" fill="#fff"/>
  <path id="8" d="M628.547 74.65C640.047 74.65 649.247 76.8 656.147 81.1C663.047 85.3 666.497 91.75 666.497 100.45C666.497 103.75 665.897 107.5 664.697 111.7L658.547 132.4C658.447 132.8 658.397 133.3 658.397 133.9C658.397 135.5 659.047 136.3 660.347 136.3C661.547 136.3 662.547 135.8 663.347 134.8C664.247 133.7 664.847 133.15 665.147 133.15C665.647 133.15 666.047 133.5 666.347 134.2C666.747 134.9 666.947 135.7 666.947 136.6C667.047 139.3 665.997 142.05 663.797 144.85C661.697 147.65 658.847 149.95 655.247 151.75C651.647 153.55 647.697 154.45 643.397 154.45C638.197 154.45 633.747 153.5 630.047 151.6C626.347 149.7 623.797 146.9 622.397 143.2C619.397 146.8 615.847 149.6 611.747 151.6C607.647 153.5 603.247 154.45 598.547 154.45C593.247 154.45 588.797 153.45 585.197 151.45C581.597 149.35 578.897 146.7 577.097 143.5C575.397 140.2 574.547 136.75 574.547 133.15C574.547 131.55 574.697 130 574.997 128.5C576.597 121.6 580.047 116.4 585.347 112.9C590.747 109.4 597.147 107.65 604.547 107.65C612.847 107.65 620.997 108.95 628.997 111.55L632.747 101.65C634.047 97.45 634.697 94.2 634.697 91.9C634.597 89.5 633.797 87.7 632.297 86.5C630.797 85.3 628.497 84.7 625.397 84.7C625.997 86.3 626.297 87.95 626.297 89.65C626.297 93.35 624.897 96.55 622.097 99.25C619.297 101.95 615.297 103.3 610.097 103.3C605.197 103.3 601.347 102.25 598.547 100.15C595.847 97.95 594.497 95.25 594.497 92.05C594.497 87.05 597.297 82.9 602.897 79.6C608.497 76.3 617.047 74.65 628.547 74.65ZM620.147 120.1C617.347 120.1 615.047 121.2 613.247 123.4C611.547 125.5 610.697 127.8 610.697 130.3C610.697 131.9 611.047 133.2 611.747 134.2C612.547 135.2 613.647 135.7 615.047 135.7C616.347 135.7 617.747 135.2 619.247 134.2C620.847 133.1 621.997 131.5 622.697 129.4L625.847 120.55C624.147 120.25 622.247 120.1 620.147 120.1Z" fill="#fff"/>
  <path id="9" d="M746.791 74.65C752.391 74.65 756.841 76.35 760.141 79.75C763.541 83.15 765.241 87.35 765.241 92.35C765.241 94.25 765.041 96 764.641 97.6C763.641 101.7 761.741 104.85 758.941 107.05C756.141 109.25 752.791 110.35 748.891 110.35C745.091 110.35 742.191 109.45 740.191 107.65C738.291 105.85 736.591 103.45 735.091 100.45C734.291 98.75 733.541 97.5 732.841 96.7C732.141 95.9 731.341 95.5 730.441 95.5C729.441 95.5 728.541 95.9 727.741 96.7C727.041 97.5 726.391 98.9 725.791 100.9L714.241 138.4C714.041 138.9 713.941 139.65 713.941 140.65C713.941 141.95 714.291 143.05 714.991 143.95C715.791 144.75 716.841 145.55 718.141 146.35C719.341 147.15 720.141 147.8 720.541 148.3C720.941 148.8 721.091 149.45 720.991 150.25C720.791 151.55 720.041 152.5 718.741 153.1C717.541 153.7 715.441 154 712.441 154H674.041C671.441 154 669.591 153.6 668.491 152.8C667.291 151.9 666.841 150.75 667.141 149.35C667.541 148.15 668.591 147.1 670.291 146.2C671.791 145.4 673.041 144.45 674.041 143.35C675.041 142.25 675.891 140.5 676.591 138.1L689.941 94.75C690.141 94.25 690.241 93.55 690.241 92.65C690.241 91.55 689.991 90.7 689.491 90.1C689.091 89.5 688.391 88.75 687.391 87.85C686.391 87.05 685.691 86.35 685.291 85.75C684.891 85.15 684.841 84.35 685.141 83.35C685.741 81.05 688.891 79.05 694.591 77.35C700.291 75.55 706.241 74.65 712.441 74.65C716.541 74.65 719.941 75.6 722.641 77.5C725.341 79.3 727.091 81.9 727.891 85.3C732.691 78.2 738.991 74.65 746.791 74.65Z" fill="#fff"/>
  <path id="10" d="M799.457 74.65C805.257 74.65 809.507 75.75 812.207 77.95C814.907 80.15 816.257 83.15 816.257 86.95C816.257 89.25 815.907 91.45 815.207 93.55L801.407 138.4C801.107 139.6 800.957 140.65 800.957 141.55C800.957 142.85 801.207 143.9 801.707 144.7C802.207 145.4 802.907 146.1 803.807 146.8C804.507 147.5 805.007 148.1 805.307 148.6C805.607 149 805.657 149.55 805.457 150.25C804.957 151.55 803.957 152.5 802.457 153.1C800.957 153.7 798.657 154 795.557 154H761.357C758.757 154 756.857 153.6 755.657 152.8C754.457 151.9 754.057 150.75 754.457 149.35C754.857 148.15 755.907 147.1 757.607 146.2C759.107 145.4 760.357 144.45 761.357 143.35C762.357 142.25 763.207 140.5 763.907 138.1L776.957 94.75C777.257 93.85 777.407 93.1 777.407 92.5C777.407 91.4 777.157 90.55 776.657 89.95C776.157 89.25 775.407 88.55 774.407 87.85C773.407 87.05 772.707 86.35 772.307 85.75C771.907 85.15 771.857 84.35 772.157 83.35C772.757 81.05 775.907 79.05 781.607 77.35C787.307 75.55 793.257 74.65 799.457 74.65Z" fill="#fff"/>
  <path id="11" d="M907.788 133.3C907.588 133.7 907.488 134.3 907.488 135.1C907.488 135.8 907.638 136.35 907.938 136.75C908.338 137.15 908.838 137.35 909.438 137.35C910.638 137.35 911.638 136.85 912.438 135.85C913.338 134.75 913.938 134.2 914.238 134.2C914.738 134.2 915.138 134.55 915.438 135.25C915.738 135.85 915.888 136.6 915.888 137.5C915.988 140.4 915.038 143.25 913.038 146.05C911.038 148.75 908.088 151 904.188 152.8C900.388 154.5 895.788 155.35 890.388 155.35C883.788 155.35 878.538 153.85 874.638 150.85C870.738 147.75 868.738 143.65 868.638 138.55C868.638 134.85 869.538 130.7 871.338 126.1L879.588 104.5C880.088 103.2 880.338 102.15 880.338 101.35C880.338 100.05 879.888 99.05 878.988 98.35C878.188 97.55 877.188 97.15 875.988 97.15C873.788 97.15 871.688 98.2 869.688 100.3C867.688 102.3 866.238 104.8 865.338 107.8L856.038 138.4C855.638 139.5 855.438 140.55 855.438 141.55C855.438 142.75 855.688 143.75 856.188 144.55C856.688 145.25 857.388 146 858.288 146.8C858.988 147.4 859.488 147.95 859.788 148.45C860.088 148.95 860.138 149.55 859.938 150.25C859.538 151.55 858.588 152.5 857.088 153.1C855.588 153.7 853.238 154 850.038 154H815.838C813.238 154 811.388 153.6 810.288 152.8C809.088 151.9 808.638 150.75 808.938 149.35C809.338 148.15 810.388 147.1 812.088 146.2C813.588 145.4 814.838 144.45 815.838 143.35C816.838 142.25 817.688 140.5 818.388 138.1L831.738 94.75C831.938 94.25 832.038 93.55 832.038 92.65C832.038 91.55 831.788 90.7 831.288 90.1C830.888 89.5 830.188 88.75 829.188 87.85C828.188 87.05 827.488 86.35 827.088 85.75C826.688 85.15 826.638 84.35 826.938 83.35C827.538 81.05 830.688 79.05 836.388 77.35C842.088 75.55 848.038 74.65 854.238 74.65C859.238 74.65 863.188 76.05 866.088 78.85C868.988 81.55 870.288 85.35 869.988 90.25C874.088 84.35 878.438 80.3 883.038 78.1C887.638 75.8 892.638 74.65 898.038 74.65C904.138 74.65 909.038 76.5 912.738 80.2C916.538 83.9 918.438 88.7 918.438 94.6C918.438 97.7 917.938 100.75 916.938 103.75L907.788 133.3Z" fill="#fff"/>
  <path id="12" d="M1011.26 74.65C1016.96 74.65 1021.51 76.25 1024.91 79.45C1028.41 82.55 1030.16 86.35 1030.16 90.85C1030.16 95.65 1028.71 99.4 1025.81 102.1C1022.91 104.8 1019.11 106.15 1014.41 106.15C1010.21 106.15 1006.96 105.1 1004.66 103C1002.36 100.8 1001.26 98.35 1001.36 95.65C1000.36 95.45 999.511 95.85 998.811 96.85C998.111 97.85 997.361 99.8 996.561 102.7C996.061 104.6 995.111 106.35 993.711 107.95C1000.51 108.45 1005.56 110 1008.86 112.6C1012.16 115.2 1013.81 118.55 1013.81 122.65C1013.81 124.65 1013.46 126.65 1012.76 128.65L1011.56 133.3C1011.36 133.8 1011.26 134.45 1011.26 135.25C1011.26 136.65 1011.91 137.35 1013.21 137.35C1014.41 137.35 1015.41 136.85 1016.21 135.85C1017.11 134.75 1017.71 134.2 1018.01 134.2C1018.51 134.2 1018.91 134.55 1019.21 135.25C1019.51 135.85 1019.66 136.6 1019.66 137.5C1019.76 140.4 1018.86 143.25 1016.96 146.05C1015.16 148.75 1012.36 151 1008.56 152.8C1004.86 154.5 1000.36 155.35 995.061 155.35C988.661 155.35 983.311 153.75 979.011 150.55C974.811 147.35 972.711 143.15 972.711 137.95C972.711 136.05 973.111 133.9 973.911 131.5L976.761 124C977.261 122.2 977.511 120.9 977.511 120.1C977.511 118.8 977.061 117.85 976.161 117.25C975.361 116.65 974.061 116.35 972.261 116.35H969.261L962.511 138.4C962.211 139.6 962.061 140.65 962.061 141.55C962.061 142.85 962.311 143.9 962.811 144.7C963.311 145.4 964.011 146.1 964.911 146.8C965.611 147.5 966.111 148.1 966.411 148.6C966.711 149 966.761 149.55 966.561 150.25C966.061 151.55 965.061 152.5 963.561 153.1C962.061 153.7 959.761 154 956.661 154H922.461C919.861 154 917.961 153.6 916.761 152.8C915.561 151.9 915.161 150.75 915.561 149.35C915.961 148.15 917.011 147.1 918.711 146.2C920.211 145.4 921.461 144.45 922.461 143.35C923.461 142.25 924.311 140.5 925.011 138.1L947.811 63.25C948.111 62.35 948.261 61.6 948.261 61C948.261 59.9 947.961 59 947.361 58.3C946.861 57.6 946.161 56.9 945.261 56.2C944.261 55.4 943.511 54.7 943.011 54.1C942.611 53.5 942.561 52.7 942.861 51.7C943.461 49.4 946.611 47.4 952.311 45.7C958.011 44 963.961 43.15 970.161 43.15C975.961 43.15 980.211 44.25 982.911 46.45C985.611 48.55 986.961 51.5 986.961 55.3C986.961 57.6 986.611 59.8 985.911 61.9L972.861 104.5H977.811C979.811 104.5 981.411 103.9 982.611 102.7C983.911 101.5 984.911 99.75 985.611 97.45C988.111 90.05 991.361 84.4 995.361 80.5C999.361 76.6 1004.66 74.65 1011.26 74.65Z" fill="#fff"/>
</svg>