<svg viewBox="0 0 1031 113" fill="none" xmlns="http://www.w3.org/2000/svg">
<path d="M120.851 11.1c4.1 0 6.15 1.3 6.15 3.9 0 .7-.05 1.2-.15 1.5-.3 1-.75 1.8-1.35 2.4-.6.5-1.45 1.1-2.55 1.8-1.5.9-2.75 1.9-3.75 3s-1.85 2.8-2.55 5.1l-18.6 66.6c-1.7 6-3.85 10.2-6.45 12.6-2.5 2.4-6 3.6-10.5 3.6-4 0-7.35-1.15-10.05-3.45-2.6-2.4-5.05-6.05-7.35-10.95L41.05 49.5l-12.6 43.8c-.3 1.3-.45 2.45-.45 3.45 0 1.3.2 2.4.6 3.3.5.8 1.15 1.65 1.95 2.55 1.1 1.3 1.65 2.4 1.65 3.3 0 .6-.05 1.05-.15 1.35-.4 1.4-1.3 2.4-2.7 3-1.4.5-3.5.75-6.3.75H6.7c-4.1 0-6.15-1.3-6.15-3.9 0-.7.05-1.2.15-1.5.3-1 .75-1.75 1.35-2.25.6-.6 1.45-1.25 2.55-1.95 1.5-.9 2.75-1.9 3.75-3s1.85-2.8 2.55-5.1l19.05-67.35-2.4-4.95c-1-2-1.5-3.75-1.5-5.25 0-3.1 2-4.65 6-4.65h22.2c3.2 0 5.6.75 7.2 2.25 1.7 1.4 3.5 3.95 5.4 7.65l21.9 43.95L99.1 28.8c.3-1.4.45-2.55.45-3.45 0-1.3-.25-2.35-.75-3.15-.4-.9-1-1.8-1.8-2.7-1.1-1.3-1.65-2.4-1.65-3.3 0-.6.05-1.05.15-1.35.4-1.4 1.3-2.35 2.7-2.85 1.4-.6 3.5-.9 6.3-.9h16.35zM152.435 31.65c5.8 0 10.05 1.1 12.75 3.3 2.7 2.2 4.05 5.2 4.05 9 0 2.3-.35 4.5-1.05 6.6l-13.8 44.85c-.3 1.2-.45 2.25-.45 3.15 0 1.3.25 2.35.75 3.15.5.7 1.2 1.4 2.1 2.1.7.7 1.2 1.3 1.5 1.8.3.4.35.95.15 1.65-.5 1.3-1.5 2.25-3 2.85-1.5.6-3.8.9-6.9.9h-34.2c-2.6 0-4.5-.4-5.7-1.2-1.2-.9-1.6-2.05-1.2-3.45.4-1.2 1.45-2.25 3.15-3.15 1.5-.8 2.75-1.75 3.75-2.85s1.85-2.85 2.55-5.25l13.05-43.35c.3-.9.45-1.65.45-2.25 0-1.1-.25-1.95-.75-2.55-.5-.7-1.25-1.4-2.25-2.1-1-.8-1.7-1.5-2.1-2.1-.4-.6-.45-1.4-.15-2.4.6-2.3 3.75-4.3 9.45-6 5.7-1.8 11.65-2.7 17.85-2.7zM260.767 90.3c-.2.4-.3 1-.3 1.8 0 .7.15 1.25.45 1.65.4.4.9.6 1.5.6 1.2 0 2.2-.5 3-1.5.9-1.1 1.5-1.65 1.8-1.65.5 0 .9.35 1.2 1.05.3.6.45 1.35.45 2.25.1 2.9-.85 5.75-2.85 8.55-2 2.7-4.95 4.95-8.85 6.75-3.8 1.7-8.4 2.55-13.8 2.55-6.6 0-11.85-1.5-15.75-4.5-3.9-3.1-5.9-7.2-6-12.3 0-3.7.9-7.85 2.7-12.45l8.25-21.6c.5-1.3.75-2.35.75-3.15 0-1.3-.45-2.3-1.35-3-.8-.8-1.8-1.2-3-1.2-2.2 0-4.3 1.05-6.3 3.15-2 2-3.45 4.5-4.35 7.5l-9.3 30.6c-.4 1.1-.6 2.15-.6 3.15 0 1.2.25 2.2.75 3 .5.7 1.2 1.45 2.1 2.25.7.6 1.2 1.15 1.5 1.65.3.5.35 1.1.15 1.8-.4 1.3-1.35 2.25-2.85 2.85-1.5.6-3.85.9-7.05.9h-34.2c-2.6 0-4.45-.4-5.55-1.2-1.2-.9-1.65-2.05-1.35-3.45.4-1.2 1.45-2.25 3.15-3.15 1.5-.8 2.75-1.75 3.75-2.85s1.85-2.85 2.55-5.25l13.35-43.35c.2-.5.3-1.2.3-2.1 0-1.1-.25-1.95-.75-2.55-.4-.6-1.1-1.35-2.1-2.25-1-.8-1.7-1.5-2.1-2.1-.4-.6-.45-1.4-.15-2.4.6-2.3 3.75-4.3 9.45-6 5.7-1.8 11.65-2.7 17.85-2.7 5 0 8.95 1.4 11.85 4.2 2.9 2.7 4.2 6.5 3.9 11.4 4.1-5.9 8.45-9.95 13.05-12.15 4.6-2.3 9.6-3.45 15-3.45 6.1 0 11 1.85 14.7 5.55 3.8 3.7 5.7 8.5 5.7 14.4 0 3.1-.5 6.15-1.5 9.15l-9.15 29.55zM328.84 31.65c11.5 0 20.7 2.15 27.6 6.45 6.9 4.2 10.35 10.65 10.35 19.35 0 3.3-.6 7.05-1.8 11.25l-6.15 20.7c-.1.4-.15.9-.15 1.5 0 1.6.65 2.4 1.95 2.4 1.2 0 2.2-.5 3-1.5.9-1.1 1.5-1.65 1.8-1.65.5 0 .9.35 1.2 1.05.4.7.6 1.5.6 2.4.1 2.7-.95 5.45-3.15 8.25-2.1 2.8-4.95 5.1-8.55 6.9-3.6 1.8-7.55 2.7-11.85 2.7-5.2 0-9.65-.95-13.35-2.85-3.7-1.9-6.25-4.7-7.65-8.4-3 3.6-6.55 6.4-10.65 8.4-4.1 1.9-8.5 2.85-13.2 2.85-5.3 0-9.75-1-13.35-3-3.6-2.1-6.3-4.75-8.1-7.95-1.7-3.3-2.55-6.75-2.55-10.35 0-1.6.15-3.15.45-4.65 1.6-6.9 5.05-12.1 10.35-15.6 5.4-3.5 11.8-5.25 19.2-5.25 8.3 0 16.45 1.3 24.45 3.9l3.75-9.9c1.3-4.2 1.95-7.45 1.95-9.75-.1-2.4-.9-4.2-2.4-5.4-1.5-1.2-3.8-1.8-6.9-1.8.6 1.6.9 3.25.9 4.95 0 3.7-1.4 6.9-4.2 9.6-2.8 2.7-6.8 4.05-12 4.05-4.9 0-8.75-1.05-11.55-3.15-2.7-2.2-4.05-4.9-4.05-8.1 0-5 2.8-9.15 8.4-12.45 5.6-3.3 14.15-4.95 25.65-4.95zm-8.4 45.45c-2.8 0-5.1 1.1-6.9 3.3-1.7 2.1-2.55 4.4-2.55 6.9 0 1.6.35 2.9 1.05 3.9.8 1 1.9 1.5 3.3 1.5 1.3 0 2.7-.5 4.2-1.5 1.6-1.1 2.75-2.7 3.45-4.8l3.15-8.85c-1.7-.3-3.6-.45-5.7-.45zM591.714 25.5c0 3.6-.85 6.75-2.55 9.45-1.7 2.6-3.85 4.6-6.45 6-2.5 1.3-4.95 1.95-7.35 1.95-2.3 0-4.5-.55-6.6-1.65-2-1.2-3.3-2.55-3.9-4.05l-36.45 60.9c-2.8 4.7-5.35 8.05-7.65 10.05-2.2 1.9-4.75 2.85-7.65 2.85-6.7 0-10.5-4.3-11.4-12.9l-4.8-44.1-30.3 44.1c-3.5 5.1-6.35 8.55-8.55 10.35-2.1 1.7-4.55 2.55-7.35 2.55-6.1 0-9.8-4.8-11.1-14.4l-9.6-67.8c-.3-2-.9-3.6-1.8-4.8-.8-1.2-1.85-2.35-3.15-3.45-.9-.8-1.55-1.45-1.95-1.95-.4-.6-.6-1.25-.6-1.95-.5-3.7 1.7-5.55 6.6-5.55h37.35c2.3 0 4 .5 5.1 1.5 1.2.9 1.75 2.15 1.65 3.75 0 .8-.25 1.6-.75 2.4-.4.7-.85 1.35-1.35 1.95-1.1 1.2-1.9 2.35-2.4 3.45s-.65 2.55-.45 4.35l3.9 36.15 22.5-32.25-.45-3.6c-.2-1.9-.7-3.45-1.5-4.65-.8-1.2-1.9-2.35-3.3-3.45-1-.9-1.7-1.6-2.1-2.1-.4-.6-.6-1.25-.6-1.95-.5-3.7 1.7-5.55 6.6-5.55h37.5c2.3 0 4.05.5 5.25 1.5 1.2.9 1.75 2.15 1.65 3.75 0 1.3-.7 2.75-2.1 4.35-1 1.2-1.75 2.35-2.25 3.45s-.7 2.55-.6 4.35l1.8 32.7 20.25-35.4c3.3-5.7 6.5-9.65 9.6-11.85 3.1-2.3 7.15-3.45 12.15-3.45 4.5 0 8.15 1.35 10.95 4.05 2.8 2.7 4.2 6.35 4.2 10.95zM628.547 31.65c11.5 0 20.7 2.15 27.6 6.45 6.9 4.2 10.35 10.65 10.35 19.35 0 3.3-.6 7.05-1.8 11.25l-6.15 20.7c-.1.4-.15.9-.15 1.5 0 1.6.65 2.4 1.95 2.4 1.2 0 2.2-.5 3-1.5.9-1.1 1.5-1.65 1.8-1.65.5 0 .9.35 1.2 1.05.4.7.6 1.5.6 2.4.1 2.7-.95 5.45-3.15 8.25-2.1 2.8-4.95 5.1-8.55 6.9-3.6 1.8-7.55 2.7-11.85 2.7-5.2 0-9.65-.95-13.35-2.85-3.7-1.9-6.25-4.7-7.65-8.4-3 3.6-6.55 6.4-10.65 8.4-4.1 1.9-8.5 2.85-13.2 2.85-5.3 0-9.75-1-13.35-3-3.6-2.1-6.3-4.75-8.1-7.95-1.7-3.3-2.55-6.75-2.55-10.35 0-1.6.15-3.15.45-4.65 1.6-6.9 5.05-12.1 10.35-15.6 5.4-3.5 11.8-5.25 19.2-5.25 8.3 0 16.45 1.3 24.45 3.9l3.75-9.9c1.3-4.2 1.95-7.45 1.95-9.75-.1-2.4-.9-4.2-2.4-5.4-1.5-1.2-3.8-1.8-6.9-1.8.6 1.6.9 3.25.9 4.95 0 3.7-1.4 6.9-4.2 9.6-2.8 2.7-6.8 4.05-12 4.05-4.9 0-8.75-1.05-11.55-3.15-2.7-2.2-4.05-4.9-4.05-8.1 0-5 2.8-9.15 8.4-12.45 5.6-3.3 14.15-4.95 25.65-4.95zm-8.4 45.45c-2.8 0-5.1 1.1-6.9 3.3-1.7 2.1-2.55 4.4-2.55 6.9 0 1.6.35 2.9 1.05 3.9.8 1 1.9 1.5 3.3 1.5 1.3 0 2.7-.5 4.2-1.5 1.6-1.1 2.75-2.7 3.45-4.8l3.15-8.85c-1.7-.3-3.6-.45-5.7-.45zM746.791 31.65c5.6 0 10.05 1.7 13.35 5.1 3.4 3.4 5.1 7.6 5.1 12.6 0 1.9-.2 3.65-.6 5.25-1 4.1-2.9 7.25-5.7 9.45-2.8 2.2-6.15 3.3-10.05 3.3-3.8 0-6.7-.9-8.7-2.7-1.9-1.8-3.6-4.2-5.1-7.2-.8-1.7-1.55-2.95-2.25-3.75-.7-.8-1.5-1.2-2.4-1.2-1 0-1.9.4-2.7 1.2-.7.8-1.35 2.2-1.95 4.2l-11.55 37.5c-.2.5-.3 1.25-.3 2.25 0 1.3.35 2.4 1.05 3.3.8.8 1.85 1.6 3.15 2.4 1.2.8 2 1.45 2.4 1.95.4.5.55 1.15.45 1.95-.2 1.3-.95 2.25-2.25 2.85-1.2.6-3.3.9-6.3.9h-38.4c-2.6 0-4.45-.4-5.55-1.2-1.2-.9-1.65-2.05-1.35-3.45.4-1.2 1.45-2.25 3.15-3.15 1.5-.8 2.75-1.75 3.75-2.85s1.85-2.85 2.55-5.25l13.35-43.35c.2-.5.3-1.2.3-2.1 0-1.1-.25-1.95-.75-2.55-.4-.6-1.1-1.35-2.1-2.25-1-.8-1.7-1.5-2.1-2.1-.4-.6-.45-1.4-.15-2.4.6-2.3 3.75-4.3 9.45-6 5.7-1.8 11.65-2.7 17.85-2.7 4.1 0 7.5.95 10.2 2.85 2.7 1.8 4.45 4.4 5.25 7.8 4.8-7.1 11.1-10.65 18.9-10.65zM799.457 31.65c5.8 0 10.05 1.1 12.75 3.3 2.7 2.2 4.05 5.2 4.05 9 0 2.3-.35 4.5-1.05 6.6l-13.8 44.85c-.3 1.2-.45 2.25-.45 3.15 0 1.3.25 2.35.75 3.15.5.7 1.2 1.4 2.1 2.1.7.7 1.2 1.3 1.5 1.8.3.4.35.95.15 1.65-.5 1.3-1.5 2.25-3 2.85-1.5.6-3.8.9-6.9.9h-34.2c-2.6 0-4.5-.4-5.7-1.2-1.2-.9-1.6-2.05-1.2-3.45.4-1.2 1.45-2.25 3.15-3.15 1.5-.8 2.75-1.75 3.75-2.85s1.85-2.85 2.55-5.25l13.05-43.35c.3-.9.45-1.65.45-2.25 0-1.1-.25-1.95-.75-2.55-.5-.7-1.25-1.4-2.25-2.1-1-.8-1.7-1.5-2.1-2.1-.4-.6-.45-1.4-.15-2.4.6-2.3 3.75-4.3 9.45-6 5.7-1.8 11.65-2.7 17.85-2.7zM907.788 90.3c-.2.4-.3 1-.3 1.8 0 .7.15 1.25.45 1.65.4.4.9.6 1.5.6 1.2 0 2.2-.5 3-1.5.9-1.1 1.5-1.65 1.8-1.65.5 0 .9.35 1.2 1.05.3.6.45 1.35.45 2.25.1 2.9-.85 5.75-2.85 8.55-2 2.7-4.95 4.95-8.85 6.75-3.8 1.7-8.4 2.55-13.8 2.55-6.6 0-11.85-1.5-15.75-4.5-3.9-3.1-5.9-7.2-6-12.3 0-3.7.9-7.85 2.7-12.45l8.25-21.6c.5-1.3.75-2.35.75-3.15 0-1.3-.45-2.3-1.35-3-.8-.8-1.8-1.2-3-1.2-2.2 0-4.3 1.05-6.3 3.15-2 2-3.45 4.5-4.35 7.5l-9.3 30.6c-.4 1.1-.6 2.15-.6 3.15 0 1.2.25 2.2.75 3 .5.7 1.2 1.45 2.1 2.25.7.6 1.2 1.15 1.5 1.65.3.5.35 1.1.15 1.8-.4 1.3-1.35 2.25-2.85 2.85-1.5.6-3.85.9-7.05.9h-34.2c-2.6 0-4.45-.4-5.55-1.2-1.2-.9-1.65-2.05-1.35-3.45.4-1.2 1.45-2.25 3.15-3.15 1.5-.8 2.75-1.75 3.75-2.85s1.85-2.85 2.55-5.25l13.35-43.35c.2-.5.3-1.2.3-2.1 0-1.1-.25-1.95-.75-2.55-.4-.6-1.1-1.35-2.1-2.25-1-.8-1.7-1.5-2.1-2.1-.4-.6-.45-1.4-.15-2.4.6-2.3 3.75-4.3 9.45-6 5.7-1.8 11.65-2.7 17.85-2.7 5 0 8.95 1.4 11.85 4.2 2.9 2.7 4.2 6.5 3.9 11.4 4.1-5.9 8.45-9.95 13.05-12.15 4.6-2.3 9.6-3.45 15-3.45 6.1 0 11 1.85 14.7 5.55 3.8 3.7 5.7 8.5 5.7 14.4 0 3.1-.5 6.15-1.5 9.15l-9.15 29.55zM1011.26 31.65c5.7 0 10.25 1.6 13.65 4.8 3.5 3.1 5.25 6.9 5.25 11.4 0 4.8-1.45 8.55-4.35 11.25-2.9 2.7-6.7 4.05-11.4 4.05-4.2 0-7.45-1.05-9.75-3.15-2.3-2.2-3.4-4.65-3.3-7.35-1-.2-1.849.2-2.549 1.2s-1.45 2.95-2.25 5.85c-.5 1.9-1.45 3.65-2.85 5.25 6.799.5 11.849 2.05 15.149 4.65 3.3 2.6 4.95 5.95 4.95 10.05 0 2-.35 4-1.05 6l-1.2 4.65c-.2.5-.3 1.15-.3 1.95 0 1.4.65 2.1 1.95 2.1 1.2 0 2.2-.5 3-1.5.9-1.1 1.5-1.65 1.8-1.65.5 0 .9.35 1.2 1.05.3.6.45 1.35.45 2.25.1 2.9-.8 5.75-2.7 8.55-1.8 2.7-4.6 4.95-8.4 6.75-3.7 1.7-8.2 2.55-13.499 2.55-6.4 0-11.75-1.6-16.05-4.8-4.2-3.2-6.3-7.4-6.3-12.6 0-1.9.4-4.05 1.2-6.45l2.85-7.5c.5-1.8.75-3.1.75-3.9 0-1.3-.45-2.25-1.35-2.85-.8-.6-2.1-.9-3.9-.9h-3l-6.75 22.05c-.3 1.2-.45 2.25-.45 3.15 0 1.3.25 2.35.75 3.15.5.7 1.2 1.4 2.1 2.1.7.7 1.2 1.3 1.5 1.8.3.4.35.95.15 1.65-.5 1.3-1.5 2.25-3 2.85-1.5.6-3.8.9-6.9.9h-34.2c-2.6 0-4.5-.4-5.7-1.2-1.2-.9-1.6-2.05-1.2-3.45.4-1.2 1.45-2.25 3.15-3.15 1.5-.8 2.75-1.75 3.75-2.85s1.85-2.85 2.55-5.25l22.8-74.85c.3-.9.45-1.65.45-2.25 0-1.1-.3-2-.9-2.7-.5-.7-1.2-1.4-2.1-2.1-1-.8-1.75-1.5-2.25-2.1-.4-.6-.45-1.4-.15-2.4.6-2.3 3.75-4.3 9.45-6 5.7-1.7 11.65-2.55 17.85-2.55 5.8 0 10.05 1.1 12.75 3.3 2.7 2.1 4.05 5.05 4.05 8.85 0 2.3-.35 4.5-1.05 6.6l-13.05 42.6h4.95c2 0 3.6-.6 4.8-1.8 1.3-1.2 2.3-2.95 3-5.25 2.5-7.4 5.75-13.05 9.75-16.95 4-3.9 9.299-5.85 15.899-5.85z" 
fill="#FFF"/>
</svg>
