<svg width="1030" height="580" viewBox="0 0 1030 580" fill="none" xmlns="http://www.w3.org/2000/svg">
<path d="M355.929 54.3555C362.878 54.3555 366.352 56.5588 366.352 60.9655C366.352 62.1519 366.267 62.9993 366.098 63.5078C365.589 65.2026 364.827 66.5585 363.81 67.5754C362.793 68.4229 361.352 69.4398 359.488 70.6262C356.946 72.1516 354.827 73.8465 353.132 75.7108C351.437 77.5752 349.997 80.4565 348.81 84.3547L317.286 197.233C314.404 207.402 310.76 214.521 306.354 218.588C302.117 222.656 296.185 224.69 288.558 224.69C281.778 224.69 276.1 222.741 271.524 218.842C267.118 214.775 262.965 208.589 259.067 200.284L220.678 119.438L199.323 193.674C198.814 195.877 198.56 197.826 198.56 199.521C198.56 201.724 198.899 203.589 199.577 205.114C200.424 206.47 201.526 207.911 202.882 209.436C204.746 211.639 205.679 213.504 205.679 215.029C205.679 216.046 205.594 216.809 205.424 217.317C204.746 219.69 203.221 221.385 200.848 222.402C198.475 223.249 194.916 223.673 190.171 223.673H162.459C155.51 223.673 152.035 221.47 152.035 217.063C152.035 215.876 152.12 215.029 152.29 214.521C152.798 212.826 153.561 211.555 154.578 210.707C155.595 209.69 157.035 208.589 158.9 207.402C161.442 205.877 163.56 204.182 165.255 202.318C166.95 200.453 168.391 197.572 169.578 193.674L201.865 79.5243L197.797 71.1347C196.103 67.7449 195.255 64.7789 195.255 62.2366C195.255 56.9825 198.645 54.3555 205.424 54.3555H243.05C248.474 54.3555 252.542 55.6266 255.253 58.1689C258.135 60.5417 261.186 64.8637 264.406 71.1347L301.523 145.624L319.065 84.3547C319.574 81.9818 319.828 80.0327 319.828 78.5074C319.828 76.304 319.404 74.5244 318.557 73.1685C317.879 71.6431 316.862 70.1178 315.506 68.5924C313.642 66.389 312.71 64.5247 312.71 62.9993C312.71 61.9824 312.794 61.2197 312.964 60.7112C313.642 58.3384 315.167 56.7283 317.54 55.8809C319.913 54.8639 323.472 54.3555 328.218 54.3555H355.929ZM409.459 89.185C419.29 89.185 426.493 91.0494 431.069 94.7781C435.645 98.5068 437.933 103.591 437.933 110.032C437.933 113.93 437.34 117.659 436.154 121.218L412.764 197.233C412.256 199.267 412.002 201.046 412.002 202.572C412.002 204.775 412.425 206.555 413.273 207.911C414.12 209.097 415.307 210.283 416.832 211.47C418.018 212.656 418.866 213.673 419.374 214.521C419.883 215.199 419.968 216.131 419.629 217.317C418.781 219.52 417.086 221.131 414.544 222.147C412.002 223.164 408.103 223.673 402.849 223.673H344.885C340.478 223.673 337.258 222.995 335.224 221.639C333.19 220.114 332.512 218.165 333.19 215.792C333.868 213.758 335.648 211.978 338.529 210.453C341.071 209.097 343.19 207.487 344.885 205.623C346.58 203.758 348.02 200.792 349.207 196.724L371.325 123.252C371.833 121.727 372.088 120.455 372.088 119.438C372.088 117.574 371.664 116.133 370.816 115.117C369.969 113.93 368.698 112.744 367.003 111.557C365.308 110.201 364.122 109.015 363.444 107.998C362.766 106.981 362.681 105.625 363.189 103.93C364.206 100.032 369.545 96.6424 379.206 93.7612C388.867 90.7104 398.951 89.185 409.459 89.185ZM593.068 188.589C592.729 189.267 592.559 190.284 592.559 191.64C592.559 192.826 592.814 193.758 593.322 194.436C594 195.114 594.848 195.453 595.864 195.453C597.898 195.453 599.593 194.606 600.949 192.911C602.474 191.047 603.491 190.114 604 190.114C604.847 190.114 605.525 190.708 606.034 191.894C606.542 192.911 606.796 194.182 606.796 195.708C606.966 200.623 605.356 205.453 601.966 210.199C598.576 214.775 593.576 218.588 586.966 221.639C580.526 224.52 572.73 225.961 563.577 225.961C552.391 225.961 543.493 223.419 536.883 218.334C530.273 213.08 526.883 206.131 526.714 197.487C526.714 191.216 528.239 184.182 531.29 176.386L545.273 139.777C546.12 137.574 546.544 135.794 546.544 134.438C546.544 132.235 545.781 130.54 544.256 129.353C542.9 127.998 541.205 127.32 539.171 127.32C535.442 127.32 531.883 129.099 528.493 132.658C525.104 136.048 522.646 140.285 521.121 145.37L505.358 197.233C504.681 199.097 504.342 200.877 504.342 202.572C504.342 204.606 504.765 206.3 505.613 207.656C506.46 208.843 507.647 210.114 509.172 211.47C510.358 212.487 511.206 213.419 511.714 214.266C512.223 215.114 512.307 216.131 511.968 217.317C511.29 219.52 509.68 221.131 507.138 222.147C504.596 223.164 500.613 223.673 495.189 223.673H437.225C432.818 223.673 429.683 222.995 427.818 221.639C425.784 220.114 425.022 218.165 425.53 215.792C426.208 213.758 427.988 211.978 430.869 210.453C433.411 209.097 435.53 207.487 437.225 205.623C438.92 203.758 440.36 200.792 441.547 196.724L464.173 123.252C464.512 122.404 464.682 121.218 464.682 119.693C464.682 117.828 464.258 116.388 463.41 115.371C462.733 114.354 461.546 113.083 459.851 111.557C458.156 110.201 456.97 109.015 456.292 107.998C455.614 106.981 455.529 105.625 456.038 103.93C457.055 100.032 462.394 96.6424 472.054 93.7612C481.715 90.7104 491.799 89.185 502.308 89.185C510.782 89.185 517.477 91.5578 522.392 96.3035C527.307 100.88 529.51 107.32 529.002 115.625C535.951 105.625 543.323 98.761 551.12 95.0323C558.916 91.1341 567.391 89.185 576.543 89.185C586.882 89.185 595.186 92.3205 601.457 98.5915C607.898 104.863 611.118 112.998 611.118 122.998C611.118 128.252 610.271 133.421 608.576 138.506L593.068 188.589ZM708.443 89.185C727.934 89.185 743.526 92.829 755.221 100.117C766.916 107.235 772.763 118.167 772.763 132.913C772.763 138.506 771.746 144.861 769.712 151.98L759.289 187.064C759.119 187.742 759.035 188.589 759.035 189.606C759.035 192.318 760.136 193.674 762.339 193.674C764.373 193.674 766.068 192.826 767.424 191.131C768.95 189.267 769.966 188.335 770.475 188.335C771.322 188.335 772 188.928 772.509 190.114C773.187 191.301 773.526 192.657 773.526 194.182C773.695 198.758 771.916 203.419 768.187 208.165C764.628 212.91 759.797 216.809 753.696 219.859C747.594 222.91 740.899 224.436 733.612 224.436C724.798 224.436 717.256 222.825 710.985 219.605C704.714 216.385 700.392 211.639 698.019 205.368C692.935 211.47 686.918 216.215 679.969 219.605C673.02 222.825 665.563 224.436 657.597 224.436C648.614 224.436 641.072 222.741 634.97 219.351C628.869 215.792 624.292 211.3 621.242 205.877C618.36 200.284 616.92 194.436 616.92 188.335C616.92 185.623 617.174 182.996 617.683 180.454C620.394 168.759 626.242 159.946 635.224 154.014C644.377 148.082 655.224 145.116 667.766 145.116C681.833 145.116 695.646 147.319 709.205 151.726L715.561 134.946C717.764 127.828 718.866 122.32 718.866 118.422C718.697 114.354 717.341 111.303 714.798 109.269C712.256 107.235 708.358 106.218 703.104 106.218C704.121 108.93 704.629 111.727 704.629 114.608C704.629 120.879 702.256 126.303 697.511 130.879C692.765 135.455 685.986 137.743 677.172 137.743C668.868 137.743 662.342 135.963 657.597 132.404C653.02 128.675 650.732 124.099 650.732 118.676C650.732 110.201 655.478 103.168 664.969 97.5746C674.461 91.9816 688.952 89.185 708.443 89.185ZM694.206 166.217C689.46 166.217 685.562 168.081 682.511 171.81C679.63 175.369 678.189 179.267 678.189 183.504C678.189 186.216 678.783 188.42 679.969 190.114C681.325 191.809 683.189 192.657 685.562 192.657C687.765 192.657 690.138 191.809 692.68 190.114C695.392 188.25 697.341 185.538 698.528 181.979L703.867 166.979C700.985 166.471 697.765 166.217 694.206 166.217ZM286.89 400.787C286.89 406.888 285.449 412.227 282.568 416.803C279.687 421.21 276.043 424.6 271.636 426.972C267.399 429.176 263.246 430.277 259.179 430.277C255.281 430.277 251.552 429.345 247.993 427.481C244.603 425.447 242.4 423.159 241.383 420.617L179.605 523.834C174.859 531.8 170.537 537.478 166.639 540.868C162.91 544.088 158.588 545.698 153.673 545.698C142.317 545.698 135.877 538.41 134.351 523.834L126.216 449.09L74.8615 523.834C68.9294 532.478 64.099 538.325 60.3703 541.376C56.8111 544.257 52.6587 545.698 47.9131 545.698C37.5744 545.698 31.3033 537.563 29.1 521.292L12.8292 406.38C12.3208 402.99 11.3038 400.278 9.77846 398.244C8.42256 396.211 6.64295 394.261 4.43962 392.397C2.91424 391.041 1.81257 389.94 1.13462 389.092C0.456674 388.075 0.117699 386.973 0.117699 385.787C-0.729734 379.516 2.99898 376.381 11.3038 376.381H74.6072C78.5054 376.381 81.3867 377.228 83.2511 378.923C85.2849 380.448 86.2171 382.567 86.0476 385.279C86.0476 386.635 85.6239 387.99 84.7765 389.346C84.0985 390.533 83.3358 391.634 82.4884 392.651C80.624 394.685 79.2681 396.634 78.4207 398.499C77.5733 400.363 77.319 402.821 77.658 405.871L84.268 467.141L122.403 412.481L121.64 406.38C121.301 403.16 120.453 400.532 119.098 398.499C117.742 396.465 115.877 394.516 113.504 392.651C111.81 391.126 110.623 389.94 109.945 389.092C109.267 388.075 108.928 386.973 108.928 385.787C108.081 379.516 111.81 376.381 120.114 376.381H183.672C187.571 376.381 190.537 377.228 192.57 378.923C194.604 380.448 195.536 382.567 195.367 385.279C195.367 387.482 194.181 389.94 191.808 392.651C190.113 394.685 188.842 396.634 187.994 398.499C187.147 400.363 186.808 402.821 186.977 405.871L190.028 461.294L224.349 401.295C229.942 391.634 235.366 384.94 240.62 381.211C245.874 377.313 252.738 375.364 261.213 375.364C268.84 375.364 275.026 377.652 279.771 382.228C284.517 386.804 286.89 392.99 286.89 400.787ZM349.317 411.21C368.808 411.21 384.401 414.854 396.095 422.142C407.79 429.261 413.637 440.192 413.637 454.938C413.637 460.531 412.62 466.887 410.586 474.005L400.163 509.089C399.994 509.767 399.909 510.614 399.909 511.631C399.909 514.343 401.01 515.699 403.214 515.699C405.248 515.699 406.943 514.851 408.298 513.156C409.824 511.292 410.841 510.36 411.349 510.36C412.197 510.36 412.875 510.953 413.383 512.14C414.061 513.326 414.4 514.682 414.4 516.207C414.569 520.783 412.79 525.444 409.061 530.19C405.502 534.936 400.672 538.834 394.57 541.885C388.468 544.935 381.774 546.461 374.486 546.461C365.672 546.461 358.13 544.851 351.859 541.63C345.588 538.41 341.266 533.664 338.894 527.393C333.809 533.495 327.792 538.241 320.843 541.63C313.894 544.851 306.437 546.461 298.471 546.461C289.488 546.461 281.946 544.766 275.844 541.376C269.743 537.817 265.167 533.325 262.116 527.902C259.235 522.309 257.794 516.461 257.794 510.36C257.794 507.648 258.048 505.021 258.557 502.479C261.269 490.784 267.116 481.971 276.099 476.039C285.251 470.107 296.098 467.141 308.64 467.141C322.708 467.141 336.521 469.344 350.08 473.751L356.435 456.972C358.639 449.853 359.74 444.345 359.74 440.447C359.571 436.379 358.215 433.328 355.673 431.294C353.13 429.26 349.232 428.244 343.978 428.244C344.995 430.955 345.504 433.752 345.504 436.633C345.504 442.904 343.131 448.328 338.385 452.904C333.639 457.48 326.86 459.768 318.047 459.768C309.742 459.768 303.217 457.989 298.471 454.429C293.895 450.701 291.607 446.124 291.607 440.701C291.607 432.226 296.352 425.193 305.844 419.6C315.335 414.007 329.826 411.21 349.317 411.21ZM335.08 488.242C330.334 488.242 326.436 490.106 323.385 493.835C320.504 497.394 319.064 501.292 319.064 505.53C319.064 508.241 319.657 510.445 320.843 512.14C322.199 513.834 324.063 514.682 326.436 514.682C328.64 514.682 331.012 513.834 333.555 512.14C336.267 510.275 338.216 507.563 339.402 504.004L344.741 489.005C341.86 488.496 338.639 488.242 335.08 488.242ZM549.727 411.21C559.218 411.21 566.76 414.091 572.353 419.854C578.116 425.617 580.997 432.735 580.997 441.209C580.997 444.43 580.658 447.396 579.98 450.107C578.285 457.056 575.065 462.395 570.319 466.124C565.574 469.853 559.896 471.717 553.284 471.717C546.845 471.717 541.93 470.192 538.541 467.141C535.32 464.09 532.439 460.022 529.897 454.938C528.541 452.056 527.27 449.938 526.083 448.582C524.897 447.226 523.541 446.548 522.016 446.548C520.321 446.548 518.795 447.226 517.439 448.582C516.253 449.938 515.151 452.311 514.135 455.7L494.559 519.258C494.22 520.105 494.05 521.377 494.05 523.071C494.05 525.275 494.643 527.139 495.83 528.665C497.186 530.02 498.965 531.376 501.169 532.732C503.203 534.088 504.558 535.19 505.236 536.037C505.914 536.885 506.169 537.986 505.999 539.342C505.66 541.546 504.389 543.156 502.186 544.173C500.152 545.189 496.593 545.698 491.508 545.698H426.425C422.017 545.698 418.881 545.02 417.017 543.664C414.983 542.139 414.22 540.19 414.729 537.817C415.407 535.783 417.186 534.003 420.068 532.478C422.61 531.122 424.728 529.512 426.425 527.648C428.12 525.783 429.561 522.817 430.747 518.75L453.373 445.277C453.712 444.43 453.882 443.243 453.882 441.718C453.882 439.853 453.458 438.413 452.611 437.396C451.933 436.379 450.746 435.108 449.052 433.582C447.357 432.227 446.17 431.04 445.492 430.023C444.814 429.006 444.73 427.65 445.238 425.956C446.255 422.057 451.594 418.668 461.255 415.786C470.915 412.736 481 411.21 491.508 411.21C498.457 411.21 504.219 412.82 508.796 416.04C513.372 419.091 516.338 423.498 517.694 429.26C525.829 417.227 536.507 411.21 549.727 411.21ZM638.987 411.21C648.817 411.21 656.02 413.074 660.597 416.803C665.173 420.532 667.461 425.617 667.461 432.057C667.461 435.955 666.868 439.684 665.681 443.243L642.292 519.258C641.784 521.292 641.529 523.071 641.529 524.597C641.529 526.8 641.953 528.58 642.8 529.936C643.648 531.122 644.834 532.308 646.36 533.495C647.546 534.681 648.394 535.698 648.902 536.546C649.41 537.224 649.495 538.156 649.156 539.342C648.309 541.546 646.614 543.156 644.072 544.173C641.529 545.189 637.631 545.698 632.377 545.698H574.413C570.006 545.698 566.786 545.02 564.752 543.664C562.718 542.139 562.04 540.19 562.718 537.817C563.396 535.783 565.175 534.003 568.057 532.478C570.599 531.122 572.718 529.512 574.413 527.648C576.107 525.783 577.548 522.817 578.734 518.75L600.852 445.277C601.361 443.752 601.615 442.48 601.615 441.464C601.615 439.599 601.191 438.159 600.344 437.142C599.497 435.955 598.225 434.769 596.531 433.582C594.836 432.227 593.649 431.04 592.971 430.023C592.293 429.006 592.209 427.65 592.717 425.956C593.734 422.057 599.073 418.668 608.734 415.786C618.394 412.736 628.479 411.21 638.987 411.21ZM822.594 510.614C822.255 511.292 822.085 512.309 822.085 513.665C822.085 514.851 822.34 515.784 822.848 516.461C823.526 517.139 824.373 517.478 825.39 517.478C827.424 517.478 829.119 516.631 830.475 514.936C832 513.072 833.017 512.14 833.526 512.14C834.373 512.14 835.051 512.733 835.56 513.919C836.068 514.936 836.322 516.207 836.322 517.733C836.492 522.648 834.882 527.478 831.492 532.224C828.102 536.8 823.102 540.613 816.492 543.664C810.052 546.545 802.255 547.986 793.103 547.986C781.917 547.986 773.019 545.444 766.409 540.359C759.799 535.105 756.409 528.156 756.24 519.512C756.24 513.241 757.765 506.208 760.816 498.411L774.799 461.802C775.646 459.599 776.07 457.819 776.07 456.463C776.07 454.26 775.307 452.565 773.782 451.379C772.426 450.023 770.731 449.345 768.697 449.345C764.968 449.345 761.409 451.124 758.019 454.684C754.63 458.073 752.172 462.31 750.647 467.395L734.884 519.258C734.206 521.122 733.867 522.902 733.867 524.597C733.867 526.631 734.291 528.326 735.139 529.681C735.986 530.868 737.172 532.139 738.698 533.495C739.884 534.512 740.732 535.444 741.24 536.291C741.749 537.139 741.833 538.156 741.494 539.342C740.816 541.546 739.206 543.156 736.664 544.173C734.122 545.189 730.139 545.698 724.715 545.698H666.751C662.344 545.698 659.208 545.02 657.344 543.664C655.31 542.139 654.548 540.19 655.056 537.817C655.734 535.783 657.514 534.003 660.395 532.478C662.937 531.122 665.056 529.512 666.751 527.648C668.446 525.783 669.886 522.817 671.073 518.75L693.699 445.277C694.038 444.43 694.208 443.243 694.208 441.718C694.208 439.853 693.784 438.413 692.936 437.396C692.258 436.379 691.072 435.108 689.377 433.582C687.682 432.227 686.496 431.04 685.818 430.023C685.14 429.006 685.055 427.65 685.564 425.956C686.581 422.057 691.919 418.668 701.58 415.786C711.241 412.736 721.325 411.21 731.834 411.21C740.308 411.21 747.003 413.583 751.918 418.329C756.833 422.905 759.036 429.345 758.528 437.65C765.477 427.65 772.849 420.786 780.646 417.057C788.442 413.159 796.917 411.21 806.069 411.21C816.408 411.21 824.712 414.346 830.983 420.617C837.424 426.888 840.644 435.023 840.644 445.023C840.644 450.277 839.797 455.446 838.102 460.531L822.594 510.614ZM997.967 411.21C1007.63 411.21 1015.34 413.922 1021.1 419.346C1027.03 424.6 1030 431.04 1030 438.667C1030 446.802 1027.54 453.158 1022.63 457.734C1017.71 462.31 1011.27 464.599 1003.31 464.599C996.187 464.599 990.679 462.819 986.781 459.26C982.883 455.531 981.018 451.379 981.188 446.802C979.493 446.463 978.052 447.141 976.866 448.836C975.679 450.531 974.408 453.836 973.052 458.751C972.205 461.971 970.595 464.937 968.222 467.649C979.747 468.497 988.306 471.124 993.899 475.53C999.492 479.937 1002.29 485.615 1002.29 492.564C1002.29 495.954 1001.7 499.343 1000.51 502.733L998.475 510.614C998.136 511.462 997.967 512.563 997.967 513.919C997.967 516.292 999.069 517.478 1001.27 517.478C1003.31 517.478 1005 516.631 1006.36 514.936C1007.88 513.072 1008.9 512.14 1009.41 512.14C1010.25 512.14 1010.93 512.733 1011.44 513.919C1011.95 514.936 1012.2 516.207 1012.2 517.733C1012.37 522.648 1010.85 527.478 1007.63 532.224C1004.58 536.8 999.831 540.613 993.391 543.664C987.12 546.545 979.493 547.986 970.51 547.986C959.663 547.986 950.595 545.274 943.307 539.851C936.189 534.427 932.63 527.309 932.63 518.495C932.63 515.275 933.308 511.631 934.664 507.563L939.494 494.852C940.341 491.801 940.765 489.598 940.765 488.242C940.765 486.039 940.002 484.428 938.477 483.412C937.121 482.395 934.918 481.886 931.867 481.886H926.783L915.342 519.258C914.834 521.292 914.579 523.071 914.579 524.597C914.579 526.8 915.003 528.58 915.851 529.936C916.698 531.122 917.884 532.308 919.41 533.495C920.596 534.681 921.444 535.698 921.952 536.546C922.461 537.224 922.545 538.156 922.206 539.342C921.359 541.546 919.664 543.156 917.122 544.173C914.579 545.189 910.681 545.698 905.427 545.698H847.463C843.056 545.698 839.836 545.02 837.802 543.664C835.768 542.139 835.09 540.19 835.768 537.817C836.446 535.783 838.226 534.003 841.107 532.478C843.649 531.122 845.768 529.512 847.463 527.648C849.157 525.783 850.598 522.817 851.785 518.75L890.428 391.889C890.936 390.363 891.19 389.092 891.19 388.075C891.19 386.211 890.682 384.685 889.665 383.499C888.817 382.313 887.631 381.126 886.106 379.94C884.411 378.584 883.14 377.398 882.292 376.381C881.614 375.364 881.53 374.008 882.038 372.313C883.055 368.415 888.394 365.025 898.054 362.144C907.715 359.262 917.8 357.822 928.308 357.822C938.138 357.822 945.341 359.686 949.917 363.415C954.494 366.974 956.782 371.974 956.782 378.414C956.782 382.313 956.188 386.041 955.002 389.601L932.884 461.802H941.274C944.663 461.802 947.375 460.785 949.409 458.751C951.612 456.717 953.307 453.751 954.494 449.853C958.731 437.311 964.239 427.735 971.019 421.125C977.798 414.515 986.781 411.21 997.967 411.21Z" fill="currentColor"/>
</svg>
